<svg width="25" height="25" viewBox="0 0 25 25" fill="none" xmlns="http://www.w3.org/2000/svg">
<path d="M12.5 1.43018C6.39893 1.43018 1.43018 6.39941 1.43018 12.5C1.43018 18.6006 6.39941 23.5699 12.5 23.5699C18.6006 23.5699 23.5699 18.6006 23.5699 12.5C23.5696 6.39893 18.6006 1.43018 12.5 1.43018ZM12.5 22.0943C7.21093 22.0943 2.90625 17.7892 2.90625 12.5005C2.90625 7.21143 7.21133 2.90673 12.5 2.90673C17.7891 2.90673 22.0938 7.21182 22.0938 12.5005C22.0938 17.7892 17.7887 22.0943 12.5 22.0943ZM18.896 12.5005C18.896 12.7711 18.6745 12.9926 18.4039 12.9926L12.9918 12.9924V18.4045C12.9918 18.6752 12.7704 18.8966 12.4997 18.8966C12.229 18.8966 12.0076 18.6751 12.0076 18.4045L12.0078 12.9924H6.59569C6.32504 12.9924 6.10361 12.7709 6.10361 12.5003C6.10361 12.2296 6.32505 12.0082 6.59569 12.0082H12.0078L12.0076 6.59658C12.0076 6.32593 12.2291 6.10449 12.4997 6.10449C12.7704 6.10449 12.9918 6.32594 12.9918 6.59658V12.0087H18.4039C18.6742 12.0085 18.896 12.2299 18.896 12.5005Z" fill="white"/>
</svg>
