<svg width="20" height="19" viewBox="0 0 20 19" fill="none" xmlns="http://www.w3.org/2000/svg">
<path d="M10 1.08691C5.11917 1.08691 1.14417 4.86354 1.14417 9.49998C1.14417 14.1364 5.11956 17.9131 10 17.9131C14.8805 17.9131 18.8559 14.1364 18.8559 9.49998C18.8557 4.86316 14.8805 1.08691 10 1.08691ZM10 16.7916C5.76877 16.7916 2.32502 13.5197 2.32502 9.50035C2.32502 5.48067 5.76909 2.2091 10 2.2091C14.2313 2.2091 17.675 5.48096 17.675 9.50035C17.675 13.5197 14.231 16.7916 10 16.7916ZM15.1168 9.50035C15.1168 9.70605 14.9397 9.87434 14.7231 9.87434L10.3935 9.8742V13.9874C10.3935 14.1931 10.2163 14.3614 9.99979 14.3614C9.78327 14.3614 9.60612 14.1931 9.60612 13.9874L9.60627 9.8742H5.27658C5.06006 9.8742 4.88291 9.7059 4.88291 9.50021C4.88291 9.29451 5.06007 9.12622 5.27658 9.12622H9.60627L9.60612 5.01339C9.60612 4.80769 9.78327 4.6394 9.99979 4.6394C10.2163 4.6394 10.3935 4.8077 10.3935 5.01339V9.12659H14.7231C14.9394 9.12645 15.1165 9.29474 15.1165 9.50043L15.1168 9.50035Z" fill="white"/>
</svg>
