<svg width="17" height="17" viewBox="0 0 17 17" fill="none" xmlns="http://www.w3.org/2000/svg">
<g clip-path="url(#clip0_147_49)">
<path d="M8.50001 0.972412C4.35128 0.972412 0.972534 4.35149 0.972534 8.49989C0.972534 12.6483 4.35162 16.0274 8.50001 16.0274C12.6484 16.0274 16.0275 12.6483 16.0275 8.49989C16.0274 4.35116 12.6484 0.972412 8.50001 0.972412ZM8.50001 15.024C4.90345 15.024 1.97627 12.0965 1.97627 8.50023C1.97627 4.90366 4.90372 1.97647 8.50001 1.97647C12.0966 1.97647 15.0238 4.90393 15.0238 8.50023C15.0238 12.0965 12.0963 15.024 8.50001 15.024ZM12.8493 8.50023C12.8493 8.68427 12.6987 8.83485 12.5147 8.83485L8.83444 8.83472V12.515C8.83444 12.699 8.68385 12.8496 8.49982 12.8496C8.31577 12.8496 8.16519 12.699 8.16519 12.515L8.16532 8.83472H4.48509C4.30104 8.83472 4.15047 8.68413 4.15047 8.5001C4.15047 8.31605 4.30105 8.16548 4.48509 8.16548H8.16532L8.16519 4.48557C8.16519 4.30153 8.31578 4.15095 8.49982 4.15095C8.68385 4.15095 8.83444 4.30153 8.83444 4.48557V8.16581H12.5147C12.6985 8.16568 12.849 8.31626 12.849 8.50029L12.8493 8.50023Z" fill="white"/>
</g>
<defs>
<clipPath id="clip0_147_49">
<rect width="17" height="17" fill="white"/>
</clipPath>
</defs>
</svg>
