<svg width="30" height="30" viewBox="0 0 30 30" fill="none" xmlns="http://www.w3.org/2000/svg">
<path d="M15 1.71619C7.67869 1.71619 1.71619 7.67927 1.71619 15C1.71619 22.3207 7.67927 28.2838 15 28.2838C22.3207 28.2838 28.2838 22.3207 28.2838 15C28.2835 7.67869 22.3207 1.71619 15 1.71619ZM15 26.5131C8.6531 26.5131 3.48748 21.347 3.48748 15.0006C3.48748 8.65369 8.65357 3.48806 15 3.48806C21.3469 3.48806 26.5125 8.65416 26.5125 15.0006C26.5125 21.347 21.3464 26.5131 15 26.5131ZM22.6752 15.0006C22.6752 15.3253 22.4094 15.5911 22.0847 15.5911L15.5901 15.5908V22.0854C15.5901 22.4102 15.3244 22.6759 14.9996 22.6759C14.6748 22.6759 14.4091 22.4101 14.4091 22.0854L14.4093 15.5908H7.91481C7.59003 15.5908 7.32431 15.3251 7.32431 15.0003C7.32431 14.6755 7.59004 14.4098 7.91481 14.4098H14.4093L14.4091 7.91588C14.4091 7.59109 14.6749 7.32537 14.9996 7.32537C15.3244 7.32537 15.5901 7.59111 15.5901 7.91588V14.4104H22.0847C22.409 14.4102 22.6747 14.6759 22.6747 15.0007L22.6752 15.0006Z" fill="white"/>
</svg>
