<svg width="20" height="20" viewBox="0 0 20 20" fill="none" xmlns="http://www.w3.org/2000/svg">
<path d="M18.3023 10.0001C18.3023 5.41846 14.5815 1.69775 9.99997 1.69775C5.41833 1.69775 1.69763 5.41861 1.69763 10.0001C1.69763 14.5817 5.41849 18.3024 9.99997 18.3024C14.5816 18.3024 18.3023 14.5816 18.3023 10.0001ZM17.6874 10.0001C17.6874 14.2493 14.2493 17.6876 9.9999 17.6876C5.75052 17.6876 2.3124 14.2493 2.3124 10.0001C2.3124 5.75049 5.75052 2.3126 9.9999 2.3126C14.2493 2.3126 17.6874 5.75072 17.6874 10.0001ZM14.3048 10.0001C13.0196 8.56865 11.7417 7.13068 10.4611 5.69502L9.99986 6.09861L13.4784 9.99998L9.99986 13.8917L10.4611 14.3049C11.7494 12.8763 13.011 11.4236 14.3048 9.99986V10.0001ZM10.6148 10.0001C9.32955 8.56865 8.05162 7.13068 6.77111 5.69502L6.30982 6.09861L9.78837 9.99998L6.30982 13.8917L6.77111 14.3049C8.05939 12.8763 9.32099 11.4236 10.6148 9.99986V10.0001Z" fill="white"/>
</svg>
