<svg width="30" height="30" viewBox="0 0 30 30" fill="none" xmlns="http://www.w3.org/2000/svg">
<path d="M27.4535 14.9999C27.4535 8.12744 21.8723 2.54639 15 2.54639C8.12756 2.54639 2.54651 8.12768 2.54651 14.9999C2.54651 21.8724 8.1278 27.4534 15 27.4534C21.8725 27.4534 27.4535 21.8721 27.4535 14.9999ZM26.5312 14.9999C26.5312 21.3737 21.374 26.5312 14.9999 26.5312C8.62584 26.5312 3.46866 21.3737 3.46866 14.9999C3.46866 8.62549 8.62584 3.46865 14.9999 3.46865C21.374 3.46865 26.5312 8.62584 26.5312 14.9999ZM21.4573 14.9999C19.5294 12.8527 17.6125 10.6958 15.6918 8.54229L14.9998 9.14768L20.2177 14.9997L14.9998 20.8374L15.6918 21.4572C17.6242 19.3142 19.5166 17.1352 21.4573 14.9995V14.9999ZM15.9222 14.9999C13.9944 12.8527 12.0775 10.6958 10.1567 8.54229L9.46479 9.14768L14.6826 14.9997L9.46479 20.8374L10.1567 21.4572C12.0891 19.3142 13.9815 17.1352 15.9222 14.9995V14.9999Z" fill="white"/>
</svg>
