<svg width="25" height="27" viewBox="0 0 25 27" fill="none" xmlns="http://www.w3.org/2000/svg">
<mask id="mask0_49_199" style="mask-type:luminance" maskUnits="userSpaceOnUse" x="0" y="0" width="25" height="26">
<path d="M0.199707 0.474609H24.7559V25.9453H0.199707V0.474609Z" fill="white"/>
</mask>
<g mask="url(#mask0_49_199)">
<path fill-rule="evenodd" clip-rule="evenodd" d="M19.8579 15.3605C18.6073 15.3605 17.3566 15.8755 16.4022 16.9069C14.4935 18.9683 14.4935 22.3106 16.4022 24.372C17.3566 25.4028 18.6073 25.9183 19.8579 25.9183C21.1091 25.9183 22.36 25.4027 23.3142 24.372C25.2231 22.3106 25.2231 18.9683 23.3142 16.9069C22.36 15.8761 21.1091 15.3605 19.8579 15.3605ZM22.5238 23.518C21.812 24.2867 20.8648 24.7107 19.8579 24.7107C18.8516 24.7107 17.9044 24.2867 17.1928 23.518C15.7229 21.9306 15.7229 19.3481 17.1928 17.7604C17.9044 16.991 18.8516 16.568 19.8579 16.568C20.8648 16.568 21.812 16.9911 22.5238 17.7604C23.2355 18.529 23.628 19.5514 23.628 20.6388C23.628 21.7262 23.2354 22.7492 22.5238 23.5178V23.518ZM21.4454 19.8402H20.3271V18.6325C20.3271 18.2992 20.0767 18.0287 19.7681 18.0287C19.4595 18.0287 19.2091 18.2992 19.2091 18.6325V20.444C19.2091 20.7773 19.4595 21.0477 19.7681 21.0477H21.4455C21.7541 21.0477 22.0045 20.7773 22.0045 20.444C22.0045 20.1107 21.7541 19.8402 21.4455 19.8402L21.4454 19.8402ZM13.6183 24.0669C13.631 24.0669 13.0846 24.0663 13.0972 24.0655C13.388 24.0445 13.6183 23.7827 13.6183 23.463C13.6183 23.1297 13.3678 22.8592 13.0592 22.8592H2.43667C1.82002 22.8592 1.3186 22.3176 1.3186 21.6517V8.97118H22.0051V13.1979C22.0051 13.5312 22.2556 13.8017 22.5642 13.8017C22.8728 13.8017 23.1232 13.5312 23.1232 13.1979V5.34844C23.1232 4.01626 22.1203 2.93315 20.8868 2.93315H18.6504V2.63116C18.6504 1.46584 17.7727 0.517883 16.6937 0.517883C15.6147 0.517883 14.737 1.46589 14.737 2.63116V2.93315H9.14614V2.63116C9.14614 1.46584 8.26836 0.517883 7.1894 0.517883C6.11021 0.517883 5.23247 1.46589 5.23247 2.63116V2.93315H2.43706C1.20376 2.93315 0.200684 4.01626 0.200684 5.34844V21.6518C0.200684 22.9838 1.20376 24.0671 2.43706 24.0671L13.6183 24.0669ZM1.31846 5.34835C1.31846 4.68216 1.81992 4.14063 2.43652 4.14063H5.23193V4.44262C5.23193 5.60794 6.10972 6.55589 7.18887 6.55589C8.26787 6.55589 9.14561 5.60789 9.14561 4.44262V4.14063H14.7364V4.44262C14.7364 5.60794 15.6142 6.55589 16.6932 6.55589C17.7721 6.55589 18.6499 5.60789 18.6499 4.44262V4.14063H20.8863C21.5031 4.14063 22.0045 4.68221 22.0045 5.34835V7.76364H1.31802L1.31846 5.34835ZM6.3502 2.63111C6.3502 2.13177 6.72651 1.72534 7.18887 1.72534C7.65122 1.72534 8.02754 2.13176 8.02754 2.63111V4.44264C8.02754 4.94197 7.65122 5.3484 7.18887 5.3484C6.72651 5.3484 6.3502 4.94198 6.3502 4.44264V2.63111ZM15.8546 2.63111C15.8546 2.13177 16.2309 1.72534 16.6933 1.72534C17.1556 1.72534 17.5319 2.13176 17.5319 2.63111V4.44264C17.5319 4.94197 17.1556 5.3484 16.6933 5.3484C16.2309 5.3484 15.8546 4.94198 15.8546 4.44264V2.63111ZM6.07041 10.179C4.99141 10.179 4.11367 11.127 4.11367 12.2923C4.11367 13.4575 4.99145 14.4057 6.07041 14.4057C7.14961 14.4057 8.02734 13.4576 8.02734 12.2923C8.02734 11.1269 7.14956 10.179 6.07041 10.179ZM6.07041 13.198C5.60807 13.198 5.23174 12.7916 5.23174 12.2923C5.23174 11.7929 5.60806 11.3865 6.07041 11.3865C6.53276 11.3865 6.90908 11.7929 6.90908 12.2923C6.90908 12.7916 6.53276 13.198 6.07041 13.198ZM11.6612 10.179C10.582 10.179 9.7043 11.127 9.7043 12.2923C9.7043 13.4575 10.5821 14.4057 11.6612 14.4057C12.7402 14.4057 13.618 13.4576 13.618 12.2923C13.618 11.1269 12.7402 10.179 11.6612 10.179ZM11.6612 13.198C11.1989 13.198 10.8226 12.7916 10.8226 12.2923C10.8226 11.7929 11.1989 11.3865 11.6612 11.3865C12.1236 11.3865 12.4999 11.7929 12.4999 12.2923C12.4999 12.7916 12.1236 13.198 11.6612 13.198ZM15.2953 12.2923C15.2953 13.4576 16.1731 14.4057 17.252 14.4057C18.3312 14.4057 19.209 13.4576 19.209 12.2923C19.209 11.1269 18.3312 10.179 17.252 10.179C16.173 10.179 15.2953 11.127 15.2953 12.2923ZM18.0907 12.2923C18.0907 12.7916 17.7144 13.198 17.252 13.198C16.7897 13.198 16.4134 12.7916 16.4134 12.2923C16.4134 11.7929 16.7897 11.3865 17.252 11.3865C17.7144 11.3865 18.0907 11.7929 18.0907 12.2923ZM11.661 16.2171C10.5818 16.2171 9.7041 17.1651 9.7041 18.3306C9.7041 19.4959 10.5819 20.4438 11.661 20.4438C12.74 20.4438 13.6178 19.4958 13.6178 18.3306C13.6178 17.165 12.74 16.2171 11.661 16.2171ZM11.661 19.2363C11.1987 19.2363 10.8224 18.8299 10.8224 18.3306C10.8224 17.8312 11.1987 17.4248 11.661 17.4248C12.1234 17.4248 12.4997 17.8312 12.4997 18.3306C12.4997 18.8299 12.1234 19.2363 11.661 19.2363ZM6.07021 16.2171C4.99121 16.2171 4.11348 17.1651 4.11348 18.3306C4.11348 19.4959 4.99126 20.4438 6.07021 20.4438C7.14941 20.4438 8.02715 19.4958 8.02715 18.3306C8.02715 17.165 7.14936 16.2171 6.07021 16.2171ZM6.07021 19.2363C5.60787 19.2363 5.23154 18.8299 5.23154 18.3306C5.23154 17.8312 5.60786 17.4248 6.07021 17.4248C6.53257 17.4248 6.90889 17.8312 6.90889 18.3306C6.90889 18.8299 6.53257 19.2363 6.07021 19.2363Z" fill="black"/>
</g>
</svg>
