<svg width="20" height="20" viewBox="0 0 20 20" fill="none" xmlns="http://www.w3.org/2000/svg">
<g clip-path="url(#clip0_122_200)">
<mask id="mask0_122_200" style="mask-type:luminance" maskUnits="userSpaceOnUse" x="0" y="0" width="20" height="20">
<path d="M0.15979 0.351562H19.8047V19.2187H0.15979V0.351562Z" fill="white"/>
</mask>
<g mask="url(#mask0_122_200)">
<path fill-rule="evenodd" clip-rule="evenodd" d="M15.8865 11.3781C14.8861 11.3781 13.8855 11.7596 13.122 12.5236C11.595 14.0505 11.595 16.5263 13.122 18.0533C13.8855 18.8168 14.8861 19.1987 15.8865 19.1987C16.8875 19.1987 17.8882 18.8167 18.6516 18.0533C20.1787 16.5263 20.1787 14.0505 18.6516 12.5236C17.8882 11.76 16.8875 11.3781 15.8865 11.3781ZM18.0193 17.4207C17.4498 17.9901 16.6921 18.3042 15.8865 18.3042C15.0815 18.3042 14.3237 17.9901 13.7545 17.4207C12.5785 16.2448 12.5785 14.3319 13.7545 13.1558C14.3237 12.5859 15.0815 12.2725 15.8865 12.2725C16.6921 12.2725 17.4498 12.5859 18.0193 13.1558C18.5886 13.7251 18.9026 14.4824 18.9026 15.2879C18.9026 16.0934 18.5885 16.8513 18.0193 17.4207ZM17.1565 14.6964H16.2619V13.8018C16.2619 13.5549 16.0616 13.3545 15.8147 13.3545C15.5678 13.3545 15.3675 13.5549 15.3675 13.8018V15.1436C15.3675 15.3905 15.5678 15.5908 15.8147 15.5908H17.1566C17.4035 15.5908 17.6038 15.3905 17.6038 15.1436C17.6038 14.8967 17.4034 14.6964 17.1565 14.6964ZM10.8949 17.8273C10.905 17.8273 10.4679 17.8268 10.478 17.8262C10.7106 17.8107 10.8949 17.6167 10.8949 17.3799C10.8949 17.133 10.6945 16.9327 10.4476 16.9327H1.94956C1.45624 16.9327 1.0551 16.5315 1.0551 16.0382V6.64525H17.6043V9.77615C17.6043 10.023 17.8047 10.2234 18.0516 10.2234C18.2985 10.2234 18.4988 10.023 18.4988 9.77615V3.96174C18.4988 2.97494 17.6965 2.17263 16.7097 2.17263H14.9205V1.94894C14.9205 1.08574 14.2184 0.383545 13.3552 0.383545C12.492 0.383545 11.7898 1.08577 11.7898 1.94894V2.17263H7.31713V1.94894C7.31713 1.08574 6.61491 0.383545 5.75174 0.383545C4.88839 0.383545 4.1862 1.08577 4.1862 1.94894V2.17263H1.94987C0.963227 2.17263 0.160767 2.97494 0.160767 3.96174V16.0383C0.160767 17.025 0.963227 17.8274 1.94987 17.8274L10.8949 17.8273ZM1.05499 3.96167C1.05499 3.4682 1.45616 3.06706 1.94944 3.06706H4.18576V3.29076C4.18576 4.15396 4.888 4.85614 5.75132 4.85614C6.61452 4.85614 7.31671 4.15392 7.31671 3.29076V3.06706H11.7893V3.29076C11.7893 4.15396 12.4916 4.85614 13.3548 4.85614C14.2179 4.85614 14.9201 4.15392 14.9201 3.29076V3.06706H16.7093C17.2027 3.06706 17.6038 3.46823 17.6038 3.96167V5.75077H1.05464L1.05499 3.96167ZM5.08038 1.9489C5.08038 1.57902 5.38143 1.27796 5.75132 1.27796C6.1212 1.27796 6.42225 1.57901 6.42225 1.9489V3.29077C6.42225 3.66065 6.1212 3.96171 5.75132 3.96171C5.38143 3.96171 5.08038 3.66065 5.08038 3.29077V1.9489ZM12.6839 1.9489C12.6839 1.57902 12.9849 1.27796 13.3549 1.27796C13.7247 1.27796 14.0257 1.57901 14.0257 1.9489V3.29077C14.0257 3.66065 13.7247 3.96171 13.3549 3.96171C12.9849 3.96171 12.6839 3.66065 12.6839 3.29077V1.9489ZM4.85655 7.53993C3.99335 7.53993 3.29116 8.24215 3.29116 9.10534C3.29116 9.96845 3.99338 10.6708 4.85655 10.6708C5.71991 10.6708 6.42209 9.96852 6.42209 9.10534C6.42209 8.24208 5.71987 7.53993 4.85655 7.53993ZM4.85655 9.77623C4.48668 9.77623 4.18561 9.47519 4.18561 9.10534C4.18561 8.73541 4.48667 8.43437 4.85655 8.43437C5.22643 8.43437 5.52748 8.73541 5.52748 9.10534C5.52748 9.47519 5.22643 9.77623 4.85655 9.77623ZM9.32918 7.53993C8.46582 7.53993 7.76366 8.24215 7.76366 9.10534C7.76366 9.96845 8.4659 10.6708 9.32918 10.6708C10.1924 10.6708 10.8946 9.96852 10.8946 9.10534C10.8946 8.24208 10.1924 7.53993 9.32918 7.53993ZM9.32918 9.77623C8.95934 9.77623 8.6583 9.47519 8.6583 9.10534C8.6583 8.73541 8.95934 8.43437 9.32918 8.43437C9.6991 8.43437 10.0001 8.73541 10.0001 9.10534C10.0001 9.47519 9.6991 9.77623 9.32918 9.77623ZM12.2365 9.10534C12.2365 9.96852 12.9387 10.6708 13.8018 10.6708C14.6652 10.6708 15.3674 9.96852 15.3674 9.10534C15.3674 8.24208 14.6652 7.53993 13.8018 7.53993C12.9386 7.53993 12.2365 8.24215 12.2365 9.10534ZM14.4728 9.10534C14.4728 9.47519 14.1717 9.77623 13.8018 9.77623C13.432 9.77623 13.1309 9.47519 13.1309 9.10534C13.1309 8.73541 13.432 8.43437 13.8018 8.43437C14.1717 8.43437 14.4728 8.73541 14.4728 9.10534ZM9.32902 12.0126C8.46566 12.0126 7.7635 12.7148 7.7635 13.5782C7.7635 14.4413 8.46574 15.1435 9.32902 15.1435C10.1922 15.1435 10.8945 14.4413 10.8945 13.5782C10.8945 12.7147 10.1922 12.0126 9.32902 12.0126ZM9.32902 14.249C8.95918 14.249 8.65814 13.948 8.65814 13.5782C8.65814 13.2082 8.95918 12.9072 9.32902 12.9072C9.69894 12.9072 9.99998 13.2082 9.99998 13.5782C9.99998 13.948 9.69894 14.249 9.32902 14.249ZM4.85639 12.0126C3.99319 12.0126 3.291 12.7148 3.291 13.5782C3.291 14.4413 3.99323 15.1435 4.85639 15.1435C5.71975 15.1435 6.42194 14.4413 6.42194 13.5782C6.42194 12.7147 5.71971 12.0126 4.85639 12.0126ZM4.85639 14.249C4.48652 14.249 4.18545 13.948 4.18545 13.5782C4.18545 13.2082 4.48651 12.9072 4.85639 12.9072C5.22628 12.9072 5.52733 13.2082 5.52733 13.5782C5.52733 13.948 5.22628 14.249 4.85639 14.249Z" fill="black"/>
</g>
</g>
<defs>
<clipPath id="clip0_122_200">
<rect width="20" height="20" fill="white"/>
</clipPath>
</defs>
</svg>
