<svg width="15" height="15" viewBox="0 0 15 15" fill="none" xmlns="http://www.w3.org/2000/svg">
<path d="M5.19375 6.57754H1.50381C1.38147 6.57754 1.26417 6.62606 1.17764 6.71258C1.09124 6.7991 1.0426 6.9164 1.0426 7.03874V12.5738C1.0426 12.9408 1.1884 13.2927 1.44784 13.5523C1.70739 13.8117 2.05941 13.9575 2.42629 13.9575H5.19382C5.31616 13.9575 5.43346 13.909 5.51999 13.8225C5.6065 13.7359 5.65514 13.6186 5.65514 13.4963V7.03867C5.65514 6.91633 5.6065 6.79903 5.51999 6.71251C5.43347 6.62599 5.31617 6.57747 5.19382 6.57747L5.19375 6.57754ZM4.73256 13.0349H2.42622C2.30388 13.0349 2.18658 12.9863 2.10006 12.8998C2.01365 12.8133 1.96501 12.696 1.96501 12.5737V7.50003H4.73254L4.73256 13.0349ZM12.5739 1.04248H2.42631C2.05942 1.04248 1.70739 1.18828 1.44785 1.44771C1.18841 1.70727 1.04261 2.05929 1.04261 2.42617V5.1937C1.04261 5.31604 1.09125 5.43334 1.17766 5.51986C1.26417 5.60638 1.38147 5.65502 1.50382 5.65502H13.4965C13.6188 5.65502 13.7361 5.60638 13.8227 5.51986C13.9092 5.43335 13.9577 5.31604 13.9577 5.1937V2.42617C13.9577 2.05929 13.8119 1.70726 13.5525 1.44771C13.2929 1.18828 12.941 1.04248 12.574 1.04248H12.5739ZM13.0351 4.73242H1.96494V2.42608C1.96494 2.30375 2.01358 2.18644 2.09998 2.09992C2.1865 2.01352 2.3038 1.96488 2.42614 1.96488H12.5737C12.696 1.96488 12.8133 2.01352 12.8999 2.09992C12.9864 2.18644 13.0349 2.30374 13.0349 2.42608L13.0351 4.73242ZM13.4962 6.57745H7.03892C6.91659 6.57745 6.79928 6.62597 6.71276 6.71249C6.62624 6.79901 6.57772 6.91631 6.57772 7.03865V13.4963C6.57772 13.6186 6.62624 13.7359 6.71276 13.8224C6.79928 13.909 6.91658 13.9575 7.03892 13.9575H12.574C12.941 13.9575 13.2929 13.8117 13.5524 13.5522C13.8119 13.2927 13.9577 12.9408 13.9577 12.5738V7.03872C13.9577 6.91639 13.9092 6.79909 13.8226 6.71256C13.7361 6.62605 13.6188 6.57752 13.4965 6.57752L13.4962 6.57745ZM13.0351 12.5736C13.0351 12.696 12.9865 12.8133 12.9 12.8998C12.8135 12.9863 12.6962 13.0348 12.5739 13.0348H7.50022V7.49979H13.0353L13.0351 12.5736Z" fill="white"/>
</svg>
