<svg width="20" height="20" viewBox="0 0 20 20" fill="none" xmlns="http://www.w3.org/2000/svg">
<path d="M10 0.396118C4.70588 0.396118 0.396118 4.70588 0.396118 10C0.396118 15.2938 4.70627 19.6039 10 19.6039C15.2938 19.6039 19.6039 15.2938 19.6039 10C19.6039 4.70588 15.2938 0.396118 10 0.396118ZM10 17.4391C5.90667 17.4391 2.56096 14.1131 2.56096 10C2.56096 5.90667 5.88694 2.56096 10 2.56096C14.0934 2.56096 17.4391 5.88694 17.4391 10C17.4389 14.0934 14.0933 17.4391 10 17.4391Z" fill="#FF0000"/>
<path d="M12.0665 6.26062L10.0002 8.32711L7.93368 6.26062L6.26086 7.93343L8.32735 9.99992L6.26086 12.0662L7.93368 13.7391L10.0002 11.6727L12.0665 13.7391L13.7393 12.0662L11.673 9.99992L13.7393 7.93343L12.0665 6.26062Z" fill="#FF0000"/>
</svg>
