<svg width="20" height="20" viewBox="0 0 20 20" fill="none" xmlns="http://www.w3.org/2000/svg">
<path d="M3.08252 17.6227V16.3825C3.08252 15.8415 3.55295 15.4064 4.13674 15.4064H15.9141C16.4973 15.4064 16.9674 15.8417 16.9674 16.3825V17.6227C16.9674 18.1639 16.4973 18.5999 15.9141 18.5999H4.13713C3.55334 18.5999 3.08275 18.1636 3.08275 17.6227H3.08252Z" fill="white"/>
<path d="M14.9235 1.82427C14.3222 1.2229 13.2768 1.29813 12.581 1.99395L11.3667 3.20793L14.7116 6.55266L15.9256 5.33867C16.6215 4.64289 16.6966 3.5975 16.0942 2.99477L14.9235 1.82427Z" fill="white"/>
<path d="M10.6518 3.9231L4.94045 9.63442C4.64244 9.93273 4.45783 10.2959 4.39295 10.6604L3.96584 13.1913C3.85185 13.5736 4.33052 14.0284 4.71869 13.9452L7.12713 13.5443C7.53498 13.5033 7.93263 13.2946 8.28556 12.9793L13.9969 7.26759L10.6518 3.9231Z" fill="white"/>
</svg>
