<svg width="27" height="30" viewBox="0 0 27 30" fill="none" xmlns="http://www.w3.org/2000/svg">
<path d="M26.9633 7.44257V7.85593L15.3 16.4171L3.60986 7.23659C3.68958 5.64243 4.88519 4.40259 6.3463 4.40259H24.2264C25.7409 4.40259 26.9631 5.76032 26.9631 7.44308L26.9633 7.44257Z" fill="#7E7D7D"/>
<path d="M15.8311 18.6604L26.9633 10.4836V22.5574C26.9633 24.2402 25.7411 25.5979 24.2269 25.5979H6.37312C4.85864 25.5979 3.63668 24.2399 3.63668 22.5574L3.63647 9.92285L14.7418 18.6609C14.9012 18.8086 15.1138 18.8676 15.2996 18.8676C15.4856 18.8379 15.6717 18.7788 15.8311 18.6609L15.8311 18.6604Z" fill="#7E7D7D"/>
</svg>
