<svg width="30" height="30" viewBox="0 0 30 30" fill="none" xmlns="http://www.w3.org/2000/svg">
<path d="M29.9592 7.44257V7.85593L17 16.4171L4.01093 7.23659C4.0995 5.64243 5.42796 4.40259 7.05141 4.40259H26.9182C28.601 4.40259 29.9589 5.76032 29.9589 7.44308L29.9592 7.44257Z" fill="#7E7D7D"/>
<path d="M17.59 18.6604L29.9592 10.4836V22.5574C29.9592 24.2402 28.6012 25.5979 26.9187 25.5979H7.08118C5.39843 25.5979 4.0407 24.2399 4.0407 22.5574L4.04047 9.92285L16.3797 18.6609C16.5569 18.8086 16.7931 18.8676 16.9995 18.8676C17.2062 18.8379 17.4129 18.7788 17.59 18.6609L17.59 18.6604Z" fill="#7E7D7D"/>
</svg>
