<svg width="30" height="30" viewBox="0 0 30 30" fill="none" xmlns="http://www.w3.org/2000/svg">
<path d="M13.5089 21.2711L14.9998 22.7618L21.0168 16.7448C21.2143 16.547 21.3253 16.279 21.3253 15.9995C21.3253 15.7198 21.2143 15.4518 21.0168 15.2541L14.9998 9.23706L13.5089 10.7277L17.7261 14.9449H2.34814V17.0536H17.7261L13.5089 21.2711Z" fill="white"/>
<path d="M25.5428 2.29435H7.62017C7.34047 2.29435 7.07245 2.40558 6.87468 2.60311C6.67692 2.80086 6.56592 3.06911 6.56592 3.34883V12.8375H8.67436V4.40293H24.4888V27.5973H8.67436V19.1627H6.56592V28.6514C6.56592 28.9308 6.67692 29.1991 6.87468 29.3969C7.07243 29.5946 7.34045 29.7056 7.62017 29.7056H25.5428C25.8225 29.7056 26.0905 29.5946 26.2883 29.3969C26.4861 29.1991 26.5971 28.9309 26.5971 28.6514V3.34824C26.5971 3.06855 26.4861 2.8003 26.2883 2.60252C26.0906 2.405 25.8225 2.29376 25.5428 2.29376V2.29435Z" fill="white"/>
</svg>
