<svg width="25" height="25" viewBox="0 0 25 25" fill="none" xmlns="http://www.w3.org/2000/svg">
<path d="M11.2574 17.7259L12.4998 18.9681L17.514 13.954C17.6786 13.7891 17.7711 13.5658 17.7711 13.3329C17.7711 13.0998 17.6786 12.8765 17.514 12.7117L12.4998 7.69751L11.2574 8.93971L14.7718 12.454H1.95679V14.2113H14.7718L11.2574 17.7259Z" fill="white"/>
<path d="M21.2856 1.91187H6.3501C6.11702 1.91187 5.89367 2.00456 5.72886 2.16917C5.56406 2.33396 5.47156 2.5575 5.47156 2.7906V10.6978H7.22859V3.66902H20.4073V22.9977H7.22859V15.9688H5.47156V23.8761C5.47156 24.1089 5.56406 24.3325 5.72886 24.4973C5.89365 24.6621 6.117 24.7546 6.3501 24.7546H21.2856C21.5187 24.7546 21.742 24.6621 21.9069 24.4973C22.0717 24.3325 22.1642 24.109 22.1642 23.8761V2.79011C22.1642 2.55704 22.0717 2.33349 21.9069 2.16868C21.7421 2.00408 21.5187 1.91187 21.2856 1.91187Z" fill="white"/>
</svg>
