<svg width="17" height="17" viewBox="0 0 17 17" fill="none" xmlns="http://www.w3.org/2000/svg">
<path d="M8.49254 4.12505C8.32669 4.12505 8.16774 4.19084 8.0506 4.3081C7.93334 4.42525 7.86755 4.5842 7.86755 4.75005V8.4999C7.86755 8.66563 7.93334 8.82458 8.0506 8.94184C8.16775 9.05899 8.32669 9.12489 8.49254 9.12489H11.6174C11.8407 9.12489 12.047 9.00568 12.1586 8.81233C12.2703 8.61898 12.2703 8.38069 12.1586 8.18735C12.047 7.994 11.8407 7.87492 11.6174 7.87492H9.11749V4.74999C9.11749 4.58414 9.05159 4.42519 8.93444 4.30805C8.81718 4.19078 8.65823 4.125 8.4925 4.125L8.49254 4.12505Z" fill="white"/>
<path d="M8.49249 1C7.42799 0.999154 6.37558 1.22546 5.40558 1.66388C4.43558 2.10219 3.57021 2.74256 2.86757 3.54212V2.24997C2.86757 2.02658 2.74836 1.82028 2.55502 1.70869C2.36167 1.59699 2.12338 1.59699 1.93004 1.70869C1.73669 1.82027 1.61761 2.02658 1.61761 2.24997V5.3749C1.61761 5.54063 1.68339 5.69958 1.80066 5.81684C1.91781 5.93399 2.07675 5.99989 2.2426 5.99989H5.3675C5.59078 5.99989 5.7971 5.88068 5.90866 5.68734C6.02035 5.49399 6.02035 5.25569 5.90866 5.06235C5.79708 4.869 5.59077 4.74992 5.3675 4.74992H3.50029C4.39071 3.56257 5.6746 2.731 7.12202 2.40368C8.5696 2.07646 10.0863 2.27503 11.4006 2.96376C12.7152 3.6526 13.7418 4.78664 14.2966 6.16312C14.8516 7.53959 14.8986 9.06847 14.4293 10.4765C13.9599 11.8843 13.0049 13.0793 11.7352 13.8477C10.4655 14.616 8.96379 14.9072 7.49881 14.6695C6.03393 14.4317 4.70144 13.6805 3.73969 12.5502C2.77803 11.4199 2.24996 9.98429 2.24996 8.50011C2.24996 8.27672 2.13088 8.07042 1.93753 7.95883C1.74406 7.84713 1.50589 7.84713 1.31243 7.95883C1.11908 8.07041 1 8.27672 1 8.50011C1 9.9838 1.44002 11.4341 2.26451 12.6677C3.0889 13.9012 4.26074 14.8625 5.63162 15.4298C7.00251 15.9973 8.5109 16.1453 9.96605 15.8553C11.421 15.5653 12.7574 14.8503 13.8061 13.8005C14.8546 12.7509 15.5683 11.4138 15.8569 9.95858C16.1453 8.50312 15.9957 6.99496 15.4268 5.62475C14.858 4.25445 13.8955 3.08356 12.661 2.2604C11.4267 1.43721 9.97597 0.998647 8.49223 1.00023L8.49249 1Z" fill="white"/>
</svg>
