<svg width="18" height="18" viewBox="0 0 18 18" fill="none" xmlns="http://www.w3.org/2000/svg">
<path d="M8.99096 3.74982C8.79194 3.74982 8.60119 3.82876 8.46063 3.96948C8.31991 4.11006 8.24097 4.30079 8.24097 4.49981V8.99963C8.24097 9.19851 8.31991 9.38925 8.46063 9.52996C8.6012 9.67054 8.79194 9.74962 8.99096 9.74962H12.7408C13.0088 9.74962 13.2564 9.60657 13.3902 9.37456C13.5243 9.14254 13.5243 8.85658 13.3902 8.62458C13.2563 8.39255 13.0088 8.24966 12.7408 8.24966H9.74089V4.49975C9.74089 4.30073 9.66181 4.10998 9.52123 3.96942C9.38051 3.82869 9.18978 3.74976 8.99091 3.74976L8.99096 3.74982Z" fill="white"/>
<path d="M8.99099 2.84955e-06C7.71359 -0.00101479 6.4507 0.270547 5.2867 0.796654C4.12269 1.32263 3.08425 2.09107 2.24109 3.05055V1.49997C2.24109 1.23189 2.09804 0.984336 1.86602 0.850431C1.63401 0.716393 1.34805 0.716393 1.11605 0.850431C0.884029 0.984324 0.741134 1.2319 0.741134 1.49997V5.24988C0.741134 5.44875 0.820073 5.63949 0.960794 5.78021C1.10137 5.92079 1.2921 5.99987 1.49112 5.99987H5.24101C5.50893 5.99987 5.75652 5.85682 5.89039 5.6248C6.02442 5.39278 6.02442 5.10683 5.89039 4.87482C5.7565 4.6428 5.50892 4.49991 5.24101 4.49991H3.00034C4.06885 3.07508 5.60952 2.0772 7.34643 1.68442C9.08352 1.29175 10.9036 1.53003 12.4807 2.35651C14.0582 3.18312 15.2901 4.54397 15.9559 6.19574C16.6219 7.84751 16.6783 9.68216 16.1151 11.3718C15.5519 13.0612 14.4059 14.4952 12.8823 15.4172C11.3586 16.3392 9.55655 16.6886 7.79857 16.4034C6.04071 16.118 4.44173 15.2166 3.28762 13.8602C2.13363 12.5039 1.49995 10.7812 1.49995 9.00013C1.49995 8.73206 1.35705 8.4845 1.12504 8.3506C0.892875 8.21656 0.607067 8.21656 0.374914 8.3506C0.142895 8.48449 0 8.73206 0 9.00013C0 10.7806 0.52802 12.5209 1.51741 14.0013C2.50668 15.4815 3.91289 16.635 5.55795 17.3158C7.20301 17.9968 9.01308 18.1744 10.7593 17.8264C12.5052 17.4783 14.1088 16.6203 15.3673 15.3607C16.6256 14.1011 17.482 12.4966 17.8282 10.7503C18.1744 9.00374 17.9948 7.19395 17.3122 5.5497C16.6296 3.90534 15.4746 2.50028 13.9933 1.51248C12.512 0.524652 10.7712 -0.00162317 8.99068 0.000274862L8.99099 2.84955e-06Z" fill="white"/>
</svg>
