<svg width="20" height="20" viewBox="0 0 20 20" fill="none" xmlns="http://www.w3.org/2000/svg">
<path d="M9.98994 4.16657C9.7688 4.16657 9.55687 4.25428 9.40068 4.41064C9.24433 4.56684 9.15662 4.77876 9.15662 4.9999V9.9997C9.15662 10.2207 9.24433 10.4326 9.40068 10.589C9.55688 10.7452 9.7688 10.833 9.98994 10.833H14.1565C14.4542 10.833 14.7293 10.6741 14.878 10.4163C15.0269 10.1585 15.0269 9.84075 14.878 9.58297C14.7292 9.32517 14.4542 9.1664 14.1565 9.1664H10.8232V4.99983C10.8232 4.77869 10.7353 4.56676 10.5791 4.41057C10.4228 4.25421 10.2109 4.1665 9.98988 4.1665L9.98994 4.16657Z" fill="white"/>
<path d="M9.98999 3.16617e-06C8.57065 -0.00112755 7.16744 0.300607 5.87411 0.885171C4.58077 1.46959 3.42695 2.32341 2.4901 3.38949V1.66663C2.4901 1.36877 2.33115 1.09371 2.07336 0.944924C1.81556 0.795993 1.49784 0.795993 1.24005 0.944924C0.982254 1.09369 0.823482 1.36878 0.823482 1.66663V5.8332C0.823482 6.05417 0.911192 6.2661 1.06755 6.42245C1.22374 6.57865 1.43567 6.66652 1.6568 6.66652H5.82334C6.12103 6.66652 6.39614 6.50758 6.54488 6.24978C6.69381 5.99198 6.69381 5.67425 6.54488 5.41647C6.39611 5.15867 6.12103 4.9999 5.82334 4.9999H3.33371C4.52095 3.41676 6.2328 2.308 8.1627 1.87158C10.0928 1.43528 12.1151 1.70004 13.8675 2.61834C15.6202 3.5368 16.989 5.04886 17.7288 6.88415C18.4688 8.71945 18.5314 10.758 17.9057 12.6353C17.2799 14.5125 16.0066 16.1058 14.3136 17.1302C12.6207 18.1546 10.6184 18.5429 8.66508 18.226C6.7119 17.9089 4.93525 16.9073 3.65292 15.4002C2.3707 13.8932 1.66661 11.9791 1.66661 10.0001C1.66661 9.70229 1.50783 9.42722 1.25004 9.27844C0.992083 9.12951 0.674519 9.12951 0.416571 9.27844C0.158772 9.42721 0 9.70229 0 10.0001C0 11.9784 0.586689 13.9121 1.68601 15.5569C2.7852 17.2016 4.34766 18.4834 6.1755 19.2398C8.00334 19.9964 10.0145 20.1938 11.9547 19.8071C13.8947 19.4204 15.6765 18.4671 17.0748 17.0674C18.4729 15.6679 19.4244 13.8851 19.8092 11.9448C20.1938 10.0042 19.9943 7.99328 19.2357 6.16634C18.4774 4.33927 17.194 2.77809 15.5481 1.68054C13.9022 0.582946 11.968 -0.00180352 9.98964 0.000305402L9.98999 3.16617e-06Z" fill="white"/>
</svg>
