<svg width="15" height="20" viewBox="0 0 15 20" fill="none" xmlns="http://www.w3.org/2000/svg">
<path d="M2.01174 7.69298C2.21926 7.69298 2.41822 7.61043 2.56502 7.4638C2.71166 7.31701 2.79405 7.11803 2.79405 6.91052V6.19196C2.79421 4.96028 3.28523 3.77938 4.15851 2.91087C5.03191 2.04235 6.21554 1.55786 7.44722 1.56458C8.67874 1.57145 9.85702 2.06888 10.7207 2.94704C11.5845 3.82517 12.0626 5.01126 12.049 6.24294V6.91052C12.049 7.19006 12.1982 7.44841 12.4402 7.58817C12.6824 7.72794 12.9805 7.72794 13.2227 7.58817C13.4647 7.4484 13.6139 7.19009 13.6139 6.91052V6.25196C13.6139 2.82911 10.862 0.00938464 7.43933 9.64289e-06H7.43917C5.79445 -0.00288954 4.21605 0.648056 3.05128 1.80954C1.8866 2.97087 1.23121 4.54743 1.22937 6.19235V6.91091C1.22937 7.11843 1.31177 7.31739 1.45856 7.46419C1.60519 7.61083 1.80432 7.69338 2.01184 7.69338L2.01174 7.69298Z" fill="#7E7D7D"/>
<path d="M14.2735 8.4751H0.56959C0.418375 8.47525 0.27357 8.53552 0.166777 8.64233C0.0599649 8.7493 0 8.89425 0 9.04546V18.7251C0 18.8764 0.0599688 19.0213 0.166777 19.1283C0.273586 19.2352 0.418394 19.2954 0.56959 19.2955H14.2735C14.4247 19.2954 14.5697 19.2352 14.6766 19.1283C14.7834 19.0213 14.8436 18.8763 14.8437 18.7251V9.04546C14.8436 8.89424 14.7834 8.74928 14.6766 8.64233C14.5697 8.53537 14.4247 8.47525 14.2735 8.4751ZM8.41608 14.0794V16.2249C8.41608 16.5802 8.22656 16.9085 7.91893 17.0862C7.61131 17.2638 7.23229 17.2638 6.92451 17.0862C6.61689 16.9085 6.42736 16.5802 6.42736 16.2249V14.0794C5.95236 13.7884 5.62842 13.3041 5.54111 12.7538C5.45383 12.2036 5.61191 11.6427 5.97369 11.2191C6.33548 10.7954 6.86467 10.5514 7.42174 10.5514C7.97881 10.5514 8.50803 10.7954 8.86963 11.2191C9.23141 11.6427 9.38951 12.2036 9.30221 12.7538C9.21493 13.3041 8.89115 13.7884 8.41596 14.0794H8.41608Z" fill="#7E7D7D"/>
</svg>
