<svg width="20" height="25" viewBox="0 0 20 25" fill="none" xmlns="http://www.w3.org/2000/svg">
<g clip-path="url(#clip0_31_107)">
<path d="M0 0C6.6 0 13.2 0 20 0C20 8.25 20 16.5 20 25C13.4 25 6.8 25 0 25C0 16.75 0 8.5 0 0Z" fill="#7E7D7D"/>
<path d="M0 0C6.6 0 13.2 0 20 0C20 8.25 20 16.5 20 25C13.4 25 6.8 25 0 25C0 16.75 0 8.5 0 0ZM6.58537 1.95755C6.56298 1.97275 6.54059 1.98795 6.51753 2.00361C6.23741 2.19688 5.98088 2.41269 5.73171 2.64151C5.71152 2.66002 5.69134 2.67854 5.67054 2.69762C5.53274 2.82738 5.41237 2.96782 5.29268 3.11321C5.27665 3.13184 5.26061 3.15048 5.24409 3.16968C4.65387 3.86076 4.26409 4.71787 4.07317 5.58962C4.06589 5.6212 4.05859 5.65277 4.05126 5.68433C3.96843 6.05702 3.9439 6.42766 3.94568 6.80799C3.9457 6.85011 3.94569 6.89223 3.94566 6.93435C3.94565 7.04723 3.94593 7.1601 3.94627 7.27298C3.94658 7.39149 3.94661 7.51 3.94666 7.6285C3.94682 7.85226 3.94721 8.07602 3.94771 8.29978C3.94825 8.5548 3.94852 8.80982 3.94876 9.06483C3.94927 9.58882 3.95013 10.1128 3.95122 10.6368C3.92728 10.6365 3.90334 10.6363 3.87868 10.636C3.65159 10.6336 3.42451 10.6318 3.19741 10.6307C3.0807 10.6301 2.96399 10.6292 2.84728 10.6279C2.73436 10.6266 2.62146 10.6259 2.50853 10.6256C2.46574 10.6254 2.42295 10.625 2.38017 10.6243C1.90541 10.6175 1.52983 10.7342 1.17683 11.0548C0.812833 11.411 0.744887 11.8339 0.746642 12.3124C0.74654 12.3578 0.746406 12.4031 0.746244 12.4485C0.745892 12.5726 0.745995 12.6967 0.746175 12.8207C0.74629 12.9548 0.745985 13.0888 0.745735 13.2228C0.745316 13.4852 0.745296 13.7476 0.745423 14.0099C0.745522 14.2232 0.745487 14.4365 0.745356 14.6497C0.745338 14.6801 0.74532 14.7105 0.745301 14.7418C0.745264 14.8035 0.745226 14.8652 0.745189 14.9269C0.744949 15.3411 0.744847 15.7553 0.745033 16.1695C0.74504 16.1857 0.745048 16.2019 0.745055 16.2186C0.745115 16.35 0.745178 16.4814 0.745242 16.6128C0.745489 17.1254 0.745285 17.6379 0.744718 18.1505C0.744082 18.7269 0.74377 19.3032 0.743942 19.8796C0.744027 20.1846 0.743973 20.4896 0.743546 20.7946C0.743187 21.0542 0.743171 21.3138 0.743596 21.5734C0.743804 21.7058 0.743856 21.8382 0.743483 21.9706C0.743145 22.092 0.743262 22.2133 0.743733 22.3346C0.743824 22.3783 0.743753 22.4221 0.743498 22.4659C0.740835 22.9583 0.886513 23.3444 1.2439 23.7028C1.5376 23.9505 1.88937 24.0641 2.27287 24.0627C2.29999 24.0628 2.32712 24.0629 2.35508 24.063C2.44619 24.0633 2.53731 24.0632 2.62842 24.0631C2.69433 24.0632 2.76023 24.0633 2.82614 24.0634C2.96954 24.0637 3.11294 24.0638 3.25634 24.0638C3.46959 24.0638 3.68285 24.064 3.8961 24.0643C4.32136 24.0649 4.74661 24.0651 5.17187 24.0653C5.19389 24.0653 5.21591 24.0653 5.2386 24.0653C5.26067 24.0653 5.28273 24.0653 5.30547 24.0653C5.55004 24.0654 5.79461 24.0655 6.03918 24.0657C6.77795 24.0661 7.51672 24.0665 8.25549 24.0666C8.29093 24.0666 8.29093 24.0666 8.32709 24.0666C8.42285 24.0666 8.5186 24.0666 8.61435 24.0666C8.68642 24.0666 8.75849 24.0666 8.83056 24.0666C8.86628 24.0666 8.86628 24.0666 8.90273 24.0666C9.65088 24.0667 10.399 24.0672 11.1472 24.0681C11.9878 24.0691 12.8284 24.0696 13.669 24.0696C13.7586 24.0696 13.8483 24.0696 13.938 24.0696C13.9711 24.0696 13.9711 24.0696 14.0049 24.0696C14.3599 24.0697 14.715 24.0701 15.0701 24.0706C15.4271 24.0712 15.784 24.0713 16.141 24.0709C16.353 24.0707 16.5649 24.0709 16.7769 24.0715C16.9187 24.0718 17.0604 24.0718 17.2022 24.0714C17.2828 24.0711 17.3635 24.0712 17.4441 24.0716C17.9485 24.0741 18.3971 24.0234 18.7874 23.6755C18.9629 23.4934 19.0887 23.3018 19.1707 23.066C19.1767 23.0517 19.1828 23.0374 19.189 23.0227C19.2665 22.8165 19.2541 22.6028 19.2534 22.3866C19.2535 22.3413 19.2536 22.296 19.2538 22.2507C19.2541 22.1265 19.254 22.0023 19.2538 21.8781C19.2537 21.7441 19.254 21.61 19.2543 21.4759C19.2547 21.2134 19.2547 20.9509 19.2546 20.6884C19.2545 20.4749 19.2545 20.2615 19.2546 20.0481C19.2547 20.0177 19.2547 19.9874 19.2547 19.9561C19.2547 19.8943 19.2548 19.8326 19.2548 19.7709C19.2551 19.3565 19.2552 18.9421 19.255 18.5277C19.255 18.5115 19.255 18.4953 19.2549 18.4786C19.2549 18.3471 19.2548 18.2156 19.2548 18.0841C19.2545 17.5712 19.2547 17.0583 19.2553 16.5455C19.2559 15.9689 19.2562 15.3923 19.2561 14.8157C19.256 14.5105 19.256 14.2054 19.2565 13.9002C19.2568 13.6405 19.2568 13.3807 19.2564 13.1209C19.2562 12.9884 19.2561 12.8559 19.2565 12.7234C19.2569 12.602 19.2567 12.4806 19.2563 12.3592C19.2562 12.3154 19.2562 12.2716 19.2565 12.2278C19.259 11.7724 19.1499 11.3817 18.8141 11.0428C18.6466 10.892 18.4578 10.7854 18.2439 10.7075C18.2291 10.7017 18.2144 10.6958 18.1992 10.6897C17.9879 10.6158 17.7705 10.6279 17.5494 10.6299C17.506 10.63 17.4626 10.6301 17.4192 10.6302C17.3057 10.6305 17.1922 10.6311 17.0787 10.6319C16.9627 10.6327 16.8466 10.633 16.7305 10.6333C16.5032 10.6341 16.276 10.6353 16.0488 10.6368C16.0489 10.6156 16.049 10.5943 16.0491 10.5725C16.0512 10.0526 16.0528 9.53276 16.0538 9.0129C16.0543 8.76149 16.055 8.51008 16.0561 8.25867C16.0571 8.03918 16.0577 7.81969 16.058 7.6002C16.0581 7.48431 16.0584 7.36842 16.0591 7.25253C16.0635 6.51963 16.0187 5.82668 15.8049 5.11792C15.7992 5.09886 15.7934 5.0798 15.7875 5.06016C15.6181 4.50784 15.3465 3.95937 15 3.49057C14.9848 3.46944 14.9696 3.44831 14.954 3.42654C14.8252 3.25042 14.6823 3.08756 14.5366 2.92453C14.5218 2.90756 14.507 2.8906 14.4918 2.87312C14.2853 2.63833 14.056 2.42998 13.8049 2.24057C13.7809 2.22196 13.7569 2.20335 13.7322 2.18418C13.1771 1.75717 12.5497 1.44363 11.878 1.22642C11.8566 1.21946 11.8351 1.21251 11.813 1.20534C11.5144 1.11032 11.2126 1.03966 10.9024 0.990566C10.8851 0.987769 10.8677 0.984972 10.8498 0.98209C9.38552 0.759783 7.78996 1.12847 6.58537 1.95755Z" fill="#D9D9D9"/>
<path d="M11.2684 3.49058C11.2954 3.50026 11.2954 3.50026 11.3229 3.51013C11.7709 3.67279 12.1542 3.90465 12.5061 4.2207C12.5442 4.25415 12.5837 4.28624 12.6241 4.31716C12.7126 4.3864 12.7815 4.46712 12.8537 4.5519C12.8724 4.57379 12.8911 4.59568 12.9103 4.61823C13.1846 4.95077 13.3808 5.31058 13.5367 5.70756C13.5467 5.73255 13.5566 5.75754 13.5669 5.78329C13.7623 6.32952 13.7454 6.91141 13.7417 7.48074C13.7411 7.58117 13.7411 7.6816 13.741 7.78204C13.7405 8.07374 13.7391 8.36544 13.7379 8.65715C13.7359 9.31043 13.7338 9.96372 13.7318 10.6368C11.2688 10.6368 8.80592 10.6368 6.26836 10.6368C6.26685 9.98109 6.26534 9.32537 6.26379 8.64978C6.26312 8.44352 6.26245 8.23726 6.26177 8.02475C6.26144 7.77088 6.26144 7.77088 6.26138 7.65165C6.26131 7.56922 6.26104 7.48679 6.26063 7.40436C6.25579 6.36649 6.25579 6.36649 6.40708 5.8815C6.41331 5.86115 6.41955 5.8408 6.42597 5.81984C6.58473 5.32076 6.85002 4.86234 7.21958 4.48114C7.23369 4.46638 7.2478 4.45161 7.26233 4.43639C7.73259 3.94832 8.27456 3.62847 8.9269 3.41982C8.96283 3.40824 8.96283 3.40824 8.9995 3.39642C9.73 3.18429 10.5591 3.23221 11.2684 3.49058Z" fill="#D9D9D9"/>
<path d="M11.1434 14.5946C11.4912 14.8544 11.7716 15.256 11.8474 15.6804C11.8613 15.7917 11.862 15.9036 11.8629 16.0156C11.8632 16.0393 11.8636 16.063 11.8639 16.0874C11.8609 16.5638 11.6197 16.9943 11.2789 17.3259C11.1485 17.4478 11.0162 17.5409 10.8538 17.6179C10.8537 17.6476 10.8536 17.6772 10.8535 17.7077C10.8526 17.9868 10.8512 18.2658 10.8493 18.5448C10.8483 18.6883 10.8475 18.8317 10.8471 18.9752C10.8468 19.1136 10.8459 19.252 10.8448 19.3903C10.8444 19.4432 10.8442 19.496 10.8442 19.5489C10.8441 19.6228 10.8435 19.6967 10.8427 19.7706C10.8429 19.8035 10.8429 19.8035 10.8431 19.8371C10.8406 19.9856 10.8406 19.9856 10.7828 20.06C10.7001 20.1157 10.6521 20.1212 10.5518 20.1225C10.5244 20.1229 10.4969 20.1232 10.4687 20.1236C10.3431 20.1247 10.2176 20.1257 10.0921 20.1262C10.0258 20.1265 9.95954 20.1272 9.89328 20.1281C9.79788 20.1295 9.7025 20.1299 9.60709 20.1303C9.57746 20.1308 9.54784 20.1314 9.51731 20.1319C9.48964 20.1318 9.46198 20.1318 9.43347 20.1317C9.40919 20.1319 9.38491 20.1321 9.3599 20.1323C9.26196 20.1114 9.22858 20.0791 9.17083 20C9.15435 19.9231 9.15647 19.8484 9.15862 19.7702C9.15875 19.7472 9.15889 19.7242 9.15903 19.7004C9.15938 19.6505 9.16001 19.6006 9.16087 19.5507C9.16217 19.4717 9.16261 19.3927 9.16279 19.3137C9.16346 19.0891 9.16546 18.8645 9.16856 18.6399C9.1704 18.5024 9.17105 18.365 9.17098 18.2275C9.1712 18.1751 9.17187 18.1228 9.17302 18.0704C9.19379 17.7968 9.19379 17.7968 9.09296 17.5557C9.02973 17.5187 8.97288 17.4972 8.90254 17.4764C8.5169 17.1859 8.22246 16.7709 8.14644 16.2972C8.0998 15.7776 8.2095 15.2962 8.54735 14.8821C9.24815 14.1098 10.2879 14.0288 11.1434 14.5946Z" fill="#D9D9D9"/>
</g>
<defs>
<clipPath id="clip0_31_107">
<rect width="20" height="25" fill="white"/>
</clipPath>
</defs>
</svg>
