<svg width="25" height="25" viewBox="0 0 25 25" fill="none" xmlns="http://www.w3.org/2000/svg">
<g clip-path="url(#clip0_31_107)">
<path d="M0 0C8.25 0 16.5 0 25 0C25 8.25 25 16.5 25 25C16.75 25 8.5 25 0 25C0 16.75 0 8.5 0 0Z" fill="#7E7D7D"/>
<path d="M0 0C8.25 0 16.5 0 25 0C25 8.25 25 16.5 25 25C16.75 25 8.5 25 0 25C0 16.75 0 8.5 0 0ZM8.23171 1.95755C8.20373 1.97275 8.17574 1.98795 8.14691 2.00361C7.79676 2.19688 7.4761 2.41269 7.16463 2.64151C7.1394 2.66002 7.11417 2.67854 7.08818 2.69762C6.91593 2.82738 6.76546 2.96782 6.61585 3.11321C6.59581 3.13184 6.57577 3.15048 6.55512 3.16968C5.81733 3.86076 5.33012 4.71787 5.09146 5.58962C5.08236 5.6212 5.07323 5.65277 5.06407 5.68433C4.96054 6.05702 4.92988 6.42766 4.9321 6.80799C4.93212 6.85011 4.93211 6.89223 4.93208 6.93435C4.93206 7.04723 4.93241 7.1601 4.93284 7.27298C4.93323 7.39149 4.93326 7.51 4.93333 7.6285C4.93352 7.85226 4.93402 8.07602 4.93463 8.29978C4.93532 8.5548 4.93565 8.80982 4.93596 9.06483C4.93659 9.58882 4.93766 10.1128 4.93902 10.6368C4.9091 10.6365 4.87918 10.6363 4.84835 10.636C4.56449 10.6336 4.28064 10.6318 3.99677 10.6307C3.85087 10.6301 3.70499 10.6292 3.5591 10.6279C3.41796 10.6266 3.27682 10.6259 3.13567 10.6256C3.08218 10.6254 3.02869 10.625 2.97521 10.6243C2.38176 10.6175 1.91229 10.7342 1.47104 11.0548C1.01604 11.411 0.931109 11.8339 0.933302 12.3124C0.933175 12.3578 0.933008 12.4031 0.932805 12.4485C0.932365 12.5726 0.932493 12.6967 0.932719 12.8207C0.932863 12.9548 0.932481 13.0888 0.932169 13.2228C0.931645 13.4852 0.93162 13.7476 0.931779 14.0099C0.931903 14.2232 0.931858 14.4365 0.931696 14.6497C0.931673 14.6801 0.93165 14.7105 0.931626 14.7418C0.93158 14.8035 0.931533 14.8652 0.931486 14.9269C0.931186 15.3411 0.931059 15.7553 0.931291 16.1695C0.9313 16.1857 0.93131 16.2019 0.931319 16.2186C0.931394 16.35 0.931473 16.4814 0.931553 16.6128C0.931861 17.1254 0.931606 17.6379 0.930898 18.1505C0.930102 18.7269 0.929713 19.3032 0.929928 19.8796C0.930034 20.1846 0.929966 20.4896 0.929432 20.7946C0.928984 21.0542 0.928964 21.3138 0.929496 21.5734C0.929755 21.7058 0.92982 21.8382 0.929354 21.9706C0.928931 22.092 0.929077 22.2133 0.929666 22.3346C0.929781 22.3783 0.929692 22.4221 0.929373 22.4659C0.926043 22.9583 1.10814 23.3444 1.55488 23.7028C1.922 23.9505 2.36171 24.0641 2.84108 24.0627C2.87499 24.0628 2.90891 24.0629 2.94384 24.063C3.05774 24.0633 3.17163 24.0632 3.28553 24.0631C3.36791 24.0632 3.45029 24.0633 3.53267 24.0634C3.71192 24.0637 3.89118 24.0638 4.07043 24.0638C4.33699 24.0638 4.60356 24.064 4.87012 24.0643C5.4017 24.0649 5.93327 24.0651 6.46484 24.0653C6.49237 24.0653 6.51989 24.0653 6.54825 24.0653C6.57583 24.0653 6.60342 24.0653 6.63183 24.0653C6.93755 24.0654 7.24326 24.0655 7.54897 24.0657C8.47244 24.0661 9.3959 24.0665 10.3194 24.0666C10.3637 24.0666 10.3637 24.0666 10.4089 24.0666C10.5286 24.0666 10.6483 24.0666 10.7679 24.0666C10.858 24.0666 10.9481 24.0666 11.0382 24.0666C11.0829 24.0666 11.0829 24.0666 11.1284 24.0666C12.0636 24.0667 12.9988 24.0672 13.934 24.0681C14.9847 24.0691 16.0355 24.0696 17.0862 24.0696C17.1983 24.0696 17.3104 24.0696 17.4225 24.0696C17.4639 24.0696 17.4639 24.0696 17.5061 24.0696C17.9499 24.0697 18.3938 24.0701 18.8376 24.0706C19.2838 24.0712 19.73 24.0713 20.1762 24.0709C20.4412 24.0707 20.7062 24.0709 20.9711 24.0715C21.1483 24.0718 21.3255 24.0718 21.5027 24.0714C21.6035 24.0711 21.7043 24.0712 21.8052 24.0716C22.4357 24.0741 22.9964 24.0234 23.4843 23.6755C23.7036 23.4934 23.8608 23.3018 23.9634 23.066C23.9709 23.0517 23.9784 23.0374 23.9862 23.0227C24.0832 22.8165 24.0677 22.6028 24.0667 22.3866C24.0668 22.3413 24.067 22.296 24.0672 22.2507C24.0676 22.1265 24.0675 22.0023 24.0673 21.8781C24.0671 21.7441 24.0675 21.61 24.0678 21.4759C24.0684 21.2134 24.0684 20.9509 24.0682 20.6884C24.0681 20.4749 24.0681 20.2615 24.0683 20.0481C24.0683 20.0177 24.0683 19.9874 24.0684 19.9561C24.0684 19.8943 24.0685 19.8326 24.0685 19.7709C24.0688 19.3565 24.0689 18.9421 24.0687 18.5277C24.0687 18.5115 24.0687 18.4953 24.0687 18.4786C24.0686 18.3471 24.0685 18.2156 24.0684 18.0841C24.0681 17.5712 24.0684 17.0583 24.0691 16.5455C24.0699 15.9689 24.0703 15.3923 24.0701 14.8157C24.07 14.5105 24.07 14.2054 24.0706 13.9002C24.071 13.6405 24.071 13.3807 24.0705 13.1209C24.0702 12.9884 24.0702 12.8559 24.0706 12.7234C24.0711 12.602 24.0709 12.4806 24.0703 12.3592C24.0702 12.3154 24.0703 12.2716 24.0706 12.2278C24.0737 11.7724 23.9373 11.3817 23.5177 11.0428C23.3082 10.892 23.0722 10.7854 22.8049 10.7075C22.7864 10.7017 22.768 10.6958 22.749 10.6897C22.4849 10.6158 22.2132 10.6279 21.9367 10.6299C21.8824 10.63 21.8282 10.6301 21.7739 10.6302C21.6321 10.6305 21.4903 10.6311 21.3484 10.6319C21.2033 10.6327 21.0582 10.633 20.9131 10.6333C20.629 10.6341 20.345 10.6353 20.061 10.6368C20.0611 10.6156 20.0612 10.5943 20.0613 10.5725C20.064 10.0526 20.066 9.53276 20.0673 9.0129C20.0679 8.76149 20.0688 8.51008 20.0702 8.25867C20.0714 8.03918 20.0722 7.81969 20.0724 7.6002C20.0726 7.48431 20.073 7.36842 20.0739 7.25253C20.0793 6.51963 20.0233 5.82668 19.7561 5.11792C19.749 5.09886 19.7418 5.0798 19.7344 5.06016C19.5226 4.50784 19.1831 3.95937 18.75 3.49057C18.731 3.46944 18.712 3.44831 18.6925 3.42654C18.5315 3.25042 18.3529 3.08756 18.1707 2.92453C18.1523 2.90756 18.1338 2.8906 18.1148 2.87312C17.8566 2.63833 17.57 2.42998 17.2561 2.24057C17.2261 2.22196 17.1961 2.20335 17.1652 2.18418C16.4714 1.75717 15.6872 1.44363 14.8476 1.22642C14.8207 1.21946 14.7939 1.21251 14.7662 1.20534C14.393 1.11032 14.0158 1.03966 13.628 0.990566C13.6063 0.987769 13.5846 0.984972 13.5622 0.98209C11.7319 0.759783 9.73745 1.12847 8.23171 1.95755Z" fill="#D9D9D9"/>
<path d="M14.0856 3.49058C14.1193 3.50026 14.1193 3.50026 14.1538 3.51013C14.7137 3.67279 15.1929 3.90465 15.6327 4.2207C15.6804 4.25415 15.7298 4.28624 15.7803 4.31716C15.8909 4.3864 15.977 4.46712 16.0673 4.5519C16.0906 4.57379 16.114 4.59568 16.138 4.61823C16.4808 4.95077 16.7261 5.31058 16.9209 5.70756C16.9334 5.73255 16.9459 5.75754 16.9588 5.78329C17.203 6.32952 17.1819 6.91141 17.1772 7.48074C17.1765 7.58117 17.1765 7.6816 17.1764 7.78204C17.1757 8.07374 17.174 8.36544 17.1725 8.65715C17.1699 9.31043 17.1674 9.96372 17.1648 10.6368C14.0862 10.6368 11.0075 10.6368 7.83557 10.6368C7.83369 9.98109 7.8318 9.32537 7.82986 8.64978C7.82902 8.44352 7.82819 8.23726 7.82733 8.02475C7.82692 7.77088 7.82692 7.77088 7.82684 7.65165C7.82676 7.56922 7.82642 7.48679 7.82592 7.40436C7.81986 6.36649 7.81986 6.36649 8.00897 5.8815C8.01677 5.86115 8.02456 5.8408 8.03259 5.81984C8.23104 5.32076 8.56264 4.86234 9.0246 4.48114C9.04223 4.46638 9.05987 4.45161 9.07804 4.43639C9.66586 3.94832 10.3433 3.62847 11.1587 3.41982C11.2037 3.40824 11.2037 3.40824 11.2495 3.39642C12.1626 3.18429 13.199 3.23221 14.0856 3.49058Z" fill="#D9D9D9"/>
<path d="M13.9289 14.5946C14.3637 14.8544 14.7142 15.256 14.8089 15.6804C14.8263 15.7917 14.8272 15.9036 14.8283 16.0156C14.8287 16.0393 14.8291 16.063 14.8295 16.0874C14.8258 16.5638 14.5243 16.9943 14.0982 17.3259C13.9353 17.4478 13.7699 17.5409 13.5668 17.6179C13.5667 17.6476 13.5666 17.6772 13.5665 17.7077C13.5654 17.9868 13.5636 18.2658 13.5612 18.5448C13.56 18.6883 13.559 18.8317 13.5586 18.9752C13.5581 19.1136 13.5571 19.252 13.5556 19.3903C13.5551 19.4432 13.5549 19.496 13.5549 19.5489C13.5548 19.6228 13.554 19.6967 13.553 19.7706C13.5532 19.8035 13.5532 19.8035 13.5534 19.8371C13.5503 19.9856 13.5503 19.9856 13.4781 20.06C13.3747 20.1157 13.3148 20.1212 13.1894 20.1225C13.1551 20.1229 13.1208 20.1232 13.0855 20.1236C12.9285 20.1247 12.7716 20.1257 12.6147 20.1262C12.5319 20.1265 12.4491 20.1272 12.3662 20.1281C12.247 20.1295 12.1278 20.1299 12.0085 20.1303C11.9715 20.1308 11.9344 20.1314 11.8963 20.1319C11.8617 20.1318 11.8271 20.1318 11.7915 20.1317C11.7611 20.1319 11.7308 20.1321 11.6995 20.1323C11.5771 20.1114 11.5354 20.0791 11.4632 20C11.4426 19.9231 11.4452 19.8484 11.4479 19.7702C11.4481 19.7472 11.4482 19.7242 11.4484 19.7004C11.4489 19.6505 11.4496 19.6006 11.4507 19.5507C11.4523 19.4717 11.4529 19.3927 11.4531 19.3137C11.454 19.0891 11.4565 18.8645 11.4603 18.6399C11.4626 18.5024 11.4635 18.365 11.4634 18.2275C11.4636 18.1751 11.4645 18.1228 11.4659 18.0704C11.4919 17.7968 11.4919 17.7968 11.3658 17.5557C11.2868 17.5187 11.2157 17.4972 11.1278 17.4764C10.6458 17.1859 10.2777 16.7709 10.1827 16.2972C10.1244 15.7776 10.2615 15.2962 10.6838 14.8821C11.5598 14.1098 12.8596 14.0288 13.9289 14.5946Z" fill="#D9D9D9"/>
</g>
<defs>
<clipPath id="clip0_31_107">
<rect width="25" height="25" fill="white"/>
</clipPath>
</defs>
</svg>
