<svg width="25" height="28" viewBox="0 0 25 28" fill="none" xmlns="http://www.w3.org/2000/svg">
<path fill-rule="evenodd" clip-rule="evenodd" d="M12.4483 0C12.6033 0 12.8977 0.0310171 13.094 0.0775426C13.2955 0.118899 13.595 0.227458 13.7655 0.32051C13.936 0.408391 14.2407 0.646189 14.4421 0.847799C14.6901 1.09594 14.8554 1.31306 14.9638 1.54568C15.0465 1.73179 15.1498 1.98509 15.186 2.11433C15.2221 2.25908 15.2428 2.56408 15.2118 3.50493L16.3171 4.14078C16.9215 4.4923 17.5155 4.83349 17.6343 4.90069C17.7479 4.9679 18.1508 5.19536 18.5176 5.40731C18.8843 5.62443 19.2614 5.83638 19.344 5.88807C19.4267 5.93977 19.6694 6.07417 19.876 6.19307C20.2324 6.39468 20.2531 6.39985 20.3357 6.31197C20.3874 6.26028 20.501 6.17239 20.5837 6.11036C20.6663 6.05349 20.8264 5.95527 20.9349 5.89324C21.0382 5.83638 21.2965 5.73816 21.4979 5.68129C21.7045 5.62443 22.0248 5.5779 22.2107 5.5779C22.3967 5.58307 22.6756 5.61409 22.8306 5.65027C22.9855 5.68646 23.218 5.764 23.3471 5.82604C23.4762 5.8829 23.7242 6.03799 23.905 6.16722C24.0909 6.3068 24.3182 6.53943 24.4473 6.72553C24.5713 6.90646 24.7107 7.13392 24.7572 7.23214C24.8037 7.33036 24.876 7.56299 24.9174 7.74909C24.9638 7.9352 25 8.21435 24.9948 8.36943C24.9948 8.52452 24.9638 8.783 24.9277 8.93808C24.8915 9.09317 24.7986 9.36198 24.7211 9.53257C24.6436 9.70317 24.5041 9.9358 24.4163 10.0495C24.3233 10.1633 24.1736 10.3235 24.0754 10.4114C23.9824 10.4941 23.7862 10.644 23.6364 10.7319C23.4917 10.825 23.2748 10.9335 22.9339 11.0317V16.8991L23.0733 16.956C23.156 16.987 23.3471 17.0749 23.5021 17.1473C23.6622 17.2248 23.9463 17.4419 24.1529 17.6487C24.4318 17.9227 24.5661 18.1036 24.7056 18.3983C24.8037 18.6102 24.9122 18.9101 24.9432 19.0548C24.9742 19.2047 25 19.4632 25 19.6235C25 19.7889 24.9483 20.1094 24.8864 20.3368C24.8192 20.585 24.6901 20.8745 24.5661 21.0606C24.4576 21.2312 24.2355 21.4948 24.0754 21.6447C23.9153 21.7947 23.6467 21.9859 23.4762 22.0686C23.3058 22.1513 23.0733 22.2496 22.9597 22.2858C22.8461 22.3219 22.5155 22.353 22.2107 22.353C21.8905 22.353 21.5806 22.3219 21.4618 22.2806C21.3481 22.2444 21.1157 22.141 20.9452 22.0583C20.7748 21.9704 20.625 21.8877 20.6095 21.867C20.594 21.8463 20.501 21.7688 20.2221 21.562L19.6023 21.9239C19.2614 22.1203 18.8895 22.3374 18.7758 22.4047C18.6622 22.4667 18.187 22.7407 17.7169 23.0095C17.2469 23.2783 16.4876 23.7177 15.1963 24.4725L15.2221 25.0153C15.2428 25.3719 15.2273 25.6563 15.186 25.8424C15.1498 25.9975 15.0465 26.2766 14.9587 26.4575C14.8709 26.6385 14.6798 26.9176 14.5351 27.0779C14.3905 27.2381 14.1581 27.4398 14.0186 27.5328C13.8791 27.6259 13.6157 27.7551 13.4298 27.8275C13.2438 27.8947 12.9184 27.967 12.7066 27.9877C12.4432 28.0136 12.2056 27.9981 11.9576 27.9464C11.7614 27.905 11.4411 27.8016 11.2448 27.7086C11.0072 27.6 10.7903 27.4398 10.5475 27.1968C10.2996 26.9538 10.1446 26.7367 10.0103 26.4627C9.90703 26.2508 9.79339 25.9458 9.7624 25.7907C9.72624 25.6304 9.71074 25.3203 9.72107 25.0669C9.73657 24.824 9.75723 24.5965 9.76756 24.5603C9.77789 24.519 9.59711 24.3794 9.29752 24.2036C9.02893 24.0434 8.73967 23.878 8.65186 23.8263C8.56405 23.7746 7.82025 23.3455 6.99897 22.8699C6.17252 22.3943 5.39773 21.9446 5.2686 21.8774C5.13946 21.805 4.96901 21.7016 4.8812 21.6499C4.72624 21.5569 4.72624 21.5569 4.57128 21.6964C4.48347 21.774 4.28719 21.9135 4.13223 22.0066C3.97727 22.0997 3.71901 22.2134 3.56405 22.2599C3.37293 22.3219 3.09917 22.3478 2.7376 22.3478C2.42252 22.3478 2.10744 22.3219 1.98864 22.2806C1.875 22.2392 1.64256 22.1462 1.47211 22.0635C1.28099 21.9756 1.03306 21.7895 0.826446 21.5879C0.599174 21.3604 0.428719 21.133 0.299587 20.8745C0.196281 20.6625 0.0826446 20.4092 0.0516529 20.311C0.0258264 20.2128 0 19.8974 0 19.6131C0 19.2409 0.0258264 19.0083 0.0981405 18.786C0.154959 18.6154 0.258264 18.3724 0.330579 18.2432C0.397727 18.114 0.557851 17.8917 0.681818 17.7521C0.81095 17.6073 1.03822 17.4109 1.19318 17.3075C1.34814 17.2041 1.59607 17.0749 2.01446 16.925V13.9628C2.01446 11.3678 2.00413 11.0059 1.93698 11.0059C1.89566 11.0059 1.70455 10.9283 1.51343 10.8353C1.32231 10.7474 1.03822 10.551 0.883264 10.4062C0.723141 10.2615 0.516529 10.0288 0.428719 9.88927C0.335744 9.74969 0.201446 9.46537 0.129132 9.25859C0.0258264 8.95876 0 8.78817 0 8.35393C0 8.06443 0.0258264 7.74392 0.0568182 7.6457C0.0878099 7.54748 0.170455 7.33553 0.242769 7.18045C0.315083 7.02536 0.470041 6.77206 0.588843 6.62731C0.702479 6.47739 0.903926 6.27578 1.03306 6.17756C1.16219 6.07934 1.35331 5.95527 1.45661 5.89324C1.56508 5.83121 1.82335 5.73816 2.02479 5.68129C2.23141 5.62443 2.55165 5.5779 2.7376 5.5779C2.92355 5.58307 3.21281 5.61409 3.38326 5.65544C3.55372 5.6968 3.80682 5.78985 3.95145 5.86222C4.09091 5.92943 4.33368 6.08451 4.47831 6.19824C4.66426 6.33782 4.77273 6.38951 4.81405 6.3585C4.85021 6.33265 5.17045 6.14138 5.52686 5.93977C5.88326 5.73299 6.55475 5.34527 7.02479 5.07646C7.49483 4.80247 7.95971 4.53366 8.06302 4.47163C8.16632 4.41476 8.58988 4.16662 9.75723 3.48425L9.72624 2.9673C9.70558 2.57442 9.72107 2.3728 9.78822 2.11433C9.83471 1.92823 9.94318 1.6439 10.0258 1.47848C10.1085 1.31822 10.2996 1.04941 10.4545 0.883986C10.6095 0.723731 10.8574 0.511781 11.0124 0.41873C11.1622 0.330849 11.3895 0.217119 11.5186 0.170594C11.6477 0.124068 11.844 0.0723731 11.9576 0.0465256C12.0713 0.0258475 12.2934 0.00516951 12.4483 0V0ZM11.8285 1.58187C11.7304 1.6439 11.6012 1.73695 11.5393 1.78865C11.4824 1.84035 11.3895 1.9489 11.3326 2.03679C11.281 2.1195 11.2035 2.26941 11.1725 2.3728C11.1364 2.47103 11.1054 2.65196 11.1054 2.77086C11.1054 2.89492 11.1519 3.11721 11.2035 3.26196C11.2655 3.43255 11.3843 3.60832 11.5134 3.72722C11.6322 3.83578 11.8027 3.96501 11.8905 4.01154C12.0145 4.07874 12.1798 4.10459 12.4742 4.10459C12.7996 4.10459 12.9339 4.07874 13.094 3.99086C13.2076 3.92883 13.3729 3.80476 13.4659 3.70654C13.5537 3.61349 13.6777 3.41705 13.7397 3.27747C13.8275 3.08103 13.8481 2.94662 13.8326 2.70882C13.8223 2.53823 13.7655 2.3056 13.7138 2.19187C13.657 2.07814 13.5227 1.89721 13.4194 1.78865C13.311 1.68526 13.1457 1.56636 13.0527 1.52501C12.9649 1.48882 12.7686 1.44229 12.6291 1.42678C12.4845 1.41128 12.2882 1.41645 12.1901 1.43712C12.0919 1.4578 11.9267 1.51984 11.8285 1.58187ZM10.0568 4.95239C9.95351 5.00925 9.78822 5.10231 9.69525 5.15917C9.60744 5.21087 9.14773 5.47451 8.67769 5.74332C8.20764 6.01214 7.70145 6.3068 7.55165 6.39985C7.40702 6.48773 7.27273 6.56011 7.25723 6.56011C7.24174 6.56011 7.14359 6.61697 7.03512 6.68418C6.93182 6.75138 6.58574 6.95299 6.27583 7.13392C5.96074 7.31486 5.64566 7.50096 5.56818 7.54231C5.44422 7.60952 5.43388 7.64053 5.46488 7.77494C5.48037 7.85765 5.50103 8.11613 5.50103 8.34359C5.50103 8.57105 5.48554 8.83469 5.45971 8.92257C5.42355 9.09317 5.42355 9.09317 5.89876 9.37232C6.16219 9.52224 6.93698 9.96681 7.6188 10.3597C8.30062 10.7526 9.0186 11.1661 9.22004 11.285C9.41632 11.4039 9.6436 11.5332 9.72107 11.5745C9.84504 11.6469 9.8657 11.6417 9.97934 11.5228C10.0465 11.4505 10.2066 11.3109 10.3306 11.2075C10.4597 11.1093 10.6457 10.98 10.7438 10.9232C10.8419 10.8663 11.0537 10.7681 11.2087 10.7112C11.3636 10.6492 11.5548 10.5872 11.6322 10.5716L11.7769 10.5406V5.47451C11.5548 5.3918 11.3998 5.32976 11.2862 5.27807C11.1725 5.23154 10.9349 5.08163 10.7593 4.94722C10.4804 4.73527 10.4287 4.71459 10.3461 4.77146C10.2944 4.81281 10.1653 4.89036 10.0568 4.95239V4.95239ZM14.1426 4.97824C13.9514 5.12298 13.657 5.29358 13.4866 5.35561L13.1715 5.47451V10.5406C13.3936 10.582 13.5847 10.644 13.7397 10.7061C13.8946 10.7681 14.1529 10.8922 14.3079 10.9852C14.4628 11.0783 14.7004 11.2592 14.8347 11.3884C14.9742 11.5177 15.0981 11.6262 15.1188 11.6262C15.1446 11.6262 15.3202 11.528 15.5217 11.4091C15.7231 11.2954 15.9607 11.1558 16.0486 11.1041C16.1415 11.0472 16.2965 10.9645 16.3843 10.9077C16.4773 10.856 16.8698 10.6337 17.2521 10.4114C17.6343 10.1891 18.1612 9.88927 18.4143 9.73935C18.6674 9.58944 19.0186 9.38783 19.189 9.28961L19.499 9.11384C19.4628 8.71579 19.4473 8.49867 19.4473 8.36943C19.4473 8.2402 19.4628 8.01791 19.4835 7.87833L19.5196 7.61986C18.8326 7.21663 18.5744 7.06672 18.4969 7.02536C18.4246 6.98401 18.2231 6.86511 18.0527 6.76689C17.8822 6.66867 17.6963 6.56528 17.6395 6.52909C17.5826 6.49807 17.2211 6.29129 16.8388 6.069C16.4566 5.84671 16.0692 5.6296 15.9866 5.5779C15.9039 5.52621 15.5992 5.35561 15.3151 5.19019C15.031 5.02476 14.7262 4.85417 14.6436 4.80247L14.4835 4.70942L14.1426 4.97824ZM1.92149 7.28901C1.77686 7.39757 1.63223 7.57333 1.53926 7.75426C1.42562 7.97655 1.39463 8.10579 1.39463 8.3591C1.39463 8.58655 1.43079 8.75715 1.51343 8.92774C1.57541 9.06215 1.69938 9.24308 1.78202 9.33096C1.86983 9.41368 2.05062 9.53774 2.18492 9.59978C2.36054 9.68249 2.52066 9.71868 2.7531 9.71351C3.0062 9.71351 3.1405 9.68249 3.35744 9.56876C3.53306 9.48088 3.70868 9.33613 3.81715 9.19656C3.91012 9.06732 4.02376 8.83986 4.06508 8.68478C4.11674 8.49867 4.13223 8.32291 4.10641 8.19367C4.08574 8.07994 4.02893 7.89384 3.97727 7.78011C3.92562 7.66638 3.79649 7.49062 3.68802 7.38723C3.57955 7.28901 3.42975 7.18045 3.35744 7.14426C3.29029 7.11324 3.15083 7.06155 3.04752 7.03053C2.94938 6.99952 2.79959 6.97884 2.71178 6.98401C2.62913 6.98918 2.46901 7.01502 2.36054 7.04604C2.25207 7.08223 2.05579 7.18562 1.92149 7.28901V7.28901ZM21.3946 7.28901C21.2603 7.38723 21.0899 7.58884 21.0124 7.72842C20.8988 7.9352 20.8729 8.05409 20.8729 8.33325C20.8678 8.59172 20.8988 8.74681 20.9866 8.92774C21.0486 9.05698 21.1725 9.23791 21.2603 9.32579C21.3481 9.41368 21.5289 9.53774 21.6581 9.59978C21.8285 9.68249 21.999 9.71868 22.2107 9.71868C22.3812 9.71868 22.5878 9.68766 22.6653 9.65664C22.7428 9.62046 22.9029 9.52741 23.0269 9.44986C23.1457 9.36715 23.3006 9.2069 23.3729 9.08283C23.4401 8.96393 23.5227 8.75715 23.5589 8.63308C23.6054 8.45215 23.6054 8.33842 23.5537 8.11613C23.5176 7.95587 23.4349 7.74909 23.3729 7.65087C23.311 7.54748 23.2025 7.41825 23.1353 7.36138C23.0682 7.29935 22.9442 7.21146 22.8564 7.17011C22.7738 7.12358 22.624 7.06155 22.5207 7.03053C22.4225 6.99952 22.2727 6.97884 22.1849 6.98401C22.1023 6.98918 21.9421 7.01502 21.8337 7.04604C21.7252 7.08223 21.5238 7.19079 21.3946 7.28901V7.28901ZM3.95145 10.8508C3.78099 10.9283 3.60021 11.0111 3.55372 11.0266C3.46591 11.0576 3.46074 11.2489 3.46074 13.9835V16.9043C3.68285 16.987 3.87913 17.0801 4.04442 17.1628C4.20455 17.2455 4.41632 17.3851 4.5093 17.4729C4.60227 17.5557 4.69525 17.628 4.71591 17.628C4.73657 17.628 4.83988 17.5763 4.94835 17.5195C5.05165 17.4574 5.16529 17.3902 5.19112 17.3696C5.22211 17.3489 5.3719 17.261 5.52686 17.1731C5.68698 17.0904 5.98657 16.9198 6.19835 16.8009C6.41529 16.682 6.69421 16.5166 6.81818 16.439C6.94731 16.3563 7.15909 16.2374 7.28306 16.1651C7.41219 16.0927 7.87707 15.829 8.31612 15.5706C8.94628 15.2087 9.11674 15.0846 9.10641 15.0123C9.09607 14.9554 9.05475 14.7021 9.01343 14.4488C8.94112 14.0249 8.94112 13.937 9.01343 13.5183C9.05992 13.2598 9.10124 13.0065 9.10641 12.9548C9.11674 12.8876 8.9876 12.7842 8.62603 12.5722C8.35744 12.4172 8.03202 12.2311 7.90289 12.1587C7.77893 12.0915 7.56715 11.9674 7.43802 11.8899C7.31405 11.8072 6.88017 11.559 6.48244 11.3316C6.08471 11.1041 5.53203 10.7888 5.25826 10.6285C4.97934 10.4683 4.73657 10.339 4.71591 10.339C4.69525 10.339 4.58161 10.4217 4.46798 10.5251C4.35434 10.6233 4.1219 10.7733 3.95145 10.8508V10.8508ZM19.0599 11.0007C18.595 11.2695 18.1405 11.528 18.0527 11.5797C17.97 11.6262 17.4483 11.9312 16.8905 12.2466C16.3378 12.5671 15.8678 12.8411 15.8471 12.8514C15.8264 12.8617 15.8471 12.991 15.8936 13.1409C15.9504 13.327 15.9762 13.5958 15.9762 13.9835C15.9762 14.3661 15.9504 14.6401 15.8936 14.821L15.8058 15.095C16.6271 15.5654 16.9473 15.7515 17.0455 15.8032C17.1488 15.8601 17.438 16.0306 17.6911 16.1806C17.9494 16.3305 18.3316 16.5528 18.5434 16.6717C18.7603 16.7906 19.1426 17.0129 19.3957 17.1628C19.6539 17.3127 19.9432 17.4781 20.0413 17.535L20.2221 17.6384C20.6663 17.3075 20.8626 17.1783 20.9452 17.1421C21.0331 17.1007 21.188 17.0284 21.2965 16.987L21.4876 16.9043C21.4876 11.1868 21.4824 11.0111 21.3998 11.0059C21.3481 11.0059 21.1674 10.9387 20.9969 10.856C20.8264 10.7733 20.594 10.6233 20.4804 10.52C20.3667 10.4217 20.2531 10.339 20.2221 10.339C20.1963 10.339 20.1136 10.3752 20.0413 10.4269C19.9742 10.4734 19.53 10.7371 19.0599 11.0007V11.0007ZM11.4824 12.138C11.3585 12.2 11.1777 12.3241 11.0744 12.4172C10.9659 12.5102 10.8058 12.7067 10.7128 12.8566C10.6147 13.0065 10.501 13.2753 10.4545 13.4511C10.3977 13.6785 10.3822 13.8853 10.4029 14.1645C10.4236 14.4591 10.47 14.6349 10.6095 14.914C10.7076 15.1105 10.8884 15.369 11.0124 15.4878C11.1364 15.6016 11.3895 15.7773 11.5702 15.8756C11.8957 16.041 11.9318 16.0462 12.4742 16.0462C12.9855 16.0462 13.0733 16.0306 13.3419 15.9066C13.5021 15.829 13.7345 15.6791 13.8533 15.5706C13.9669 15.4672 14.1374 15.2707 14.2252 15.1467C14.3079 15.0174 14.4215 14.7951 14.4731 14.6556C14.5351 14.485 14.5661 14.2523 14.5661 13.9835C14.5661 13.7147 14.5351 13.4769 14.4731 13.3115C14.4215 13.1667 14.313 12.9445 14.2252 12.8204C14.1374 12.6911 13.9721 12.505 13.8585 12.4068C13.7448 12.3034 13.5486 12.1742 13.4246 12.1122C13.3006 12.0501 13.1198 11.9726 13.0165 11.9416C12.9184 11.9105 12.6653 11.8899 12.4483 11.8899C12.2366 11.895 11.9835 11.9261 11.8802 11.9622C11.782 11.9984 11.6012 12.076 11.4824 12.138ZM9.01343 16.8009C8.93079 16.8474 8.40909 17.1524 7.85124 17.4678C7.29855 17.7883 6.75103 18.1036 6.6374 18.1657C6.52376 18.2329 6.21384 18.4138 5.94008 18.5689L5.44938 18.8584C5.4907 19.1634 5.50103 19.4167 5.50103 19.6183C5.50103 19.8147 5.48554 20.0577 5.47004 20.1611L5.43388 20.342C6.40496 20.9003 6.79236 21.1226 6.92149 21.2002C7.05062 21.2725 7.83058 21.7223 8.65186 22.203C9.47831 22.6786 10.2273 23.1129 10.3202 23.1646L10.4855 23.2628C10.9866 22.8958 11.2035 22.7562 11.2862 22.72C11.374 22.6838 11.5186 22.6218 11.6116 22.5804L11.782 22.5132V17.4471C11.3998 17.3334 11.1829 17.2558 11.0537 17.1938C10.9298 17.1369 10.6973 17.0025 10.5372 16.8991C10.3822 16.7906 10.1601 16.62 10.0465 16.5218C9.93285 16.4184 9.82955 16.3356 9.81405 16.3356C9.80372 16.3356 9.64876 16.4235 9.47831 16.5218C9.30785 16.6251 9.10124 16.7492 9.01343 16.8009V16.8009ZM14.4112 16.8991C14.2562 17.0025 14.0186 17.1421 13.8843 17.2041C13.75 17.2662 13.5331 17.3437 13.4039 17.3799L13.1715 17.4471V22.5391C13.3523 22.5856 13.5227 22.6528 13.6622 22.7252C13.8068 22.7924 14.0444 22.9423 14.1942 23.056L14.4628 23.2628C15.0465 22.9319 15.2841 22.7924 15.3667 22.7458C15.4545 22.6941 15.8161 22.4874 16.1674 22.2806C16.5238 22.0738 16.906 21.8515 17.0196 21.7895C17.1333 21.7274 17.6808 21.4069 18.2335 21.0864C18.7913 20.7659 19.3079 20.4661 19.3853 20.4247C19.5093 20.3472 19.5196 20.3213 19.4886 20.1611C19.468 20.0577 19.4525 19.794 19.4525 19.5666C19.4576 19.3391 19.4731 19.0858 19.4938 19.0083C19.5248 18.8739 19.5041 18.8532 19.1012 18.6154C18.8636 18.4758 18.5692 18.3052 18.4401 18.2329C18.3161 18.1657 17.9752 17.9692 17.6911 17.809C17.407 17.6435 17.1023 17.4678 17.0093 17.4161C16.9163 17.3592 16.7665 17.2713 16.6736 17.2196C16.5806 17.1679 16.1983 16.9457 15.8213 16.7285C15.4442 16.5114 15.1291 16.3356 15.124 16.3356C15.1136 16.3356 15.0155 16.4235 14.9019 16.5218C14.7882 16.6251 14.5713 16.7906 14.4112 16.8991V16.8991ZM2.1436 18.3776C2.06095 18.4138 1.91632 18.512 1.82851 18.5896C1.7407 18.6723 1.61157 18.8429 1.54442 18.9721C1.46694 19.122 1.41529 19.3185 1.40496 19.5407C1.38946 19.794 1.41012 19.9336 1.48244 20.1094C1.53926 20.2335 1.65289 20.4196 1.7407 20.523C1.82851 20.6212 2.0093 20.7556 2.14876 20.828C2.33471 20.9158 2.49483 20.9468 2.7376 20.952C2.97521 20.952 3.14566 20.921 3.30579 20.8435C3.43492 20.7866 3.62087 20.6574 3.71384 20.5643C3.81198 20.4713 3.93079 20.3007 3.98244 20.1869C4.02893 20.0732 4.08574 19.8871 4.10641 19.7734C4.13223 19.639 4.11674 19.4632 4.06508 19.2823C4.01859 19.122 3.91529 18.8997 3.82748 18.7757C3.73967 18.6568 3.55888 18.4965 3.42459 18.419C3.23347 18.3104 3.09401 18.2742 2.81508 18.2639C2.6188 18.2535 2.42252 18.2639 2.37603 18.2794C2.33471 18.2949 2.2314 18.3362 2.1436 18.3776V18.3776ZM21.6167 18.3776C21.5341 18.4138 21.374 18.5327 21.2655 18.6412C21.1622 18.7498 21.0279 18.9411 20.9711 19.06C20.9039 19.2099 20.8678 19.3908 20.8678 19.6183C20.8678 19.8613 20.9039 20.0215 20.9866 20.1921C21.0486 20.3265 21.188 20.5126 21.2965 20.6057C21.3998 20.7039 21.5754 20.8176 21.6839 20.8641C21.7924 20.9107 22.0196 20.9469 22.2107 20.9469C22.3967 20.9469 22.6291 20.9107 22.7273 20.8693C22.8306 20.828 22.9907 20.7246 23.0837 20.6418C23.1818 20.5643 23.311 20.4144 23.3729 20.3162C23.4349 20.2128 23.5176 20.0267 23.5537 19.9026C23.5899 19.763 23.6054 19.5873 23.5847 19.4632C23.5641 19.3495 23.5072 19.1634 23.4556 19.0496C23.4091 18.9359 23.28 18.755 23.1767 18.6464C23.0733 18.543 22.9132 18.4138 22.8202 18.3673C22.7273 18.3207 22.4948 18.2742 22.2882 18.2639C22.0919 18.2535 21.8957 18.2639 21.8492 18.2794C21.8079 18.2949 21.7045 18.3362 21.6167 18.3776V18.3776ZM11.8543 24.0124C11.7717 24.0486 11.6167 24.1726 11.5083 24.2812C11.405 24.3897 11.2707 24.5862 11.2138 24.7206C11.1519 24.8602 11.1054 25.0773 11.1054 25.2272C11.1054 25.3875 11.1519 25.5839 11.2293 25.7545C11.2965 25.9044 11.4205 26.0957 11.5031 26.1836C11.5909 26.2663 11.7665 26.3903 11.9008 26.4524C12.0713 26.5351 12.2314 26.5713 12.4742 26.5713C12.6601 26.5713 12.8771 26.5403 12.9545 26.5092C13.032 26.4731 13.1921 26.38 13.3161 26.3025C13.4762 26.1939 13.5795 26.0698 13.6932 25.832C13.8326 25.5529 13.8481 25.465 13.8326 25.1755C13.8223 24.9894 13.7758 24.7568 13.7293 24.6586C13.6829 24.5552 13.5537 24.3846 13.4452 24.276C13.3368 24.1675 13.1818 24.0486 13.094 24.0124C13.0114 23.971 12.8461 23.9141 12.7324 23.8831C12.6188 23.8573 12.4948 23.8314 12.4483 23.8366C12.407 23.8366 12.2934 23.8625 12.1901 23.8883C12.0919 23.9141 11.9421 23.971 11.8543 24.0124V24.0124ZM12.4897 13.084C12.6085 13.0789 12.7944 13.1202 12.8977 13.1667C13.001 13.2184 13.1405 13.327 13.2025 13.4149C13.2645 13.4976 13.3471 13.663 13.3833 13.7767C13.4298 13.937 13.4298 14.0249 13.3781 14.1903C13.3419 14.304 13.2593 14.4695 13.1921 14.5625C13.125 14.6556 12.9959 14.7693 12.9029 14.8106C12.8099 14.852 12.6188 14.8882 12.4742 14.8882C12.2986 14.883 12.1488 14.8468 11.999 14.7538C11.8595 14.6762 11.7407 14.5522 11.6736 14.4229C11.6167 14.304 11.5702 14.1128 11.5702 13.9835C11.5702 13.8543 11.6167 13.6578 11.6736 13.5441C11.7304 13.4304 11.844 13.2908 11.9215 13.2391C11.999 13.1822 12.1074 13.1306 12.1643 13.115C12.2211 13.0995 12.3657 13.084 12.4897 13.084V13.084Z" fill="white"/>
</svg>
