<svg width="200" height="149" viewBox="0 0 200 149" fill="none" xmlns="http://www.w3.org/2000/svg">
<path fill-rule="evenodd" clip-rule="evenodd" d="M47.9787 51.8797C48.5638 51.9194 49.4255 52.1255 49.8936 52.3373C50.3617 52.5491 51.0511 53.0066 51.4255 53.3527C51.8 53.7006 52.2553 54.3038 52.4362 54.6933C52.617 55.0828 52.7681 55.8921 52.7766 57.5769L56.1149 59.2786C57.9489 60.2146 59.9809 61.2527 61.8085 62.1906L62.3553 61.7746C62.6574 61.5458 63.3277 61.2432 63.8447 61.1014C64.3638 60.9615 65.266 60.8783 65.8511 60.918C66.5489 60.9653 67.2809 61.1865 67.9787 61.5609C68.5723 61.8805 69.3234 62.5044 69.6745 62.9753C70.1787 63.6446 70.3234 64.0682 70.3851 65.0458C70.4362 65.8569 70.3511 66.532 70.1319 67.0312C69.9489 67.4472 69.534 68.0541 69.2085 68.3813C68.883 68.7084 68.2106 69.1546 66.8085 69.7729L66.8149 79.1327L67.8745 79.6527C68.5362 79.976 69.1957 80.5111 69.6255 81.0708C70.2255 81.8518 70.3234 82.1543 70.3851 83.3871C70.4489 84.7126 70.4064 84.8734 69.7489 85.8377C69.2723 86.5335 68.7 87.0592 67.9915 87.4449C67.2872 87.8307 66.5851 88.0443 65.8638 88.0916C65.2723 88.1313 64.4532 88.0708 64.0426 87.9574C63.6319 87.842 62.9383 87.5338 61.7021 86.7907L52.7553 91.4233L52.7574 92.5578C52.7574 93.2915 52.6085 93.976 52.3362 94.496C52.1043 94.9384 51.6277 95.5548 51.2766 95.8668C50.9255 96.1788 50.3277 96.5816 49.9468 96.7612C49.4702 96.9862 48.7574 97.0902 47.6596 97.0921C46.4404 97.094 45.9128 97.0089 45.4255 96.731C45.0745 96.5286 44.5149 96.1467 44.183 95.8801C43.8511 95.6135 43.3766 95.0538 43.1319 94.6378C42.8319 94.1272 42.6723 93.4806 42.6085 91.4233L38.0596 89.0957C33.5915 86.8096 33.5021 86.7737 33.0851 87.1197C32.8511 87.3126 32.3809 87.5943 32.0426 87.7456C31.6894 87.9025 30.8255 88.0198 30.0213 88.0198C29.1404 88.0198 28.3404 87.9006 27.8723 87.7002C27.4617 87.5262 26.7872 87.0573 26.3723 86.6602C25.9574 86.265 25.4787 85.6921 25.3085 85.3915C25.1319 85.0795 25 84.3061 25 83.5951C25 82.8274 25.1362 82.0919 25.3511 81.6854C25.5447 81.3204 26.0702 80.7229 26.5213 80.3542C26.9723 79.9855 27.6511 79.56 28.7234 79.1327V69.7729L28.1383 69.6103C27.817 69.5214 27.2255 69.2019 26.8277 68.9012C26.4277 68.6006 25.8553 68.0144 25.5532 67.5984C25.0894 66.9574 25.0043 66.6246 25.0021 65.4239C25 64.2421 25.0872 63.8791 25.5277 63.2494C25.817 62.8335 26.2957 62.2908 26.5915 62.045C26.8872 61.7973 27.534 61.4361 28.0319 61.2413C28.5298 61.0447 29.4149 60.8859 30 60.8859C30.6021 60.8859 31.4787 61.0504 32.0213 61.264C32.5468 61.472 33.0255 61.7273 33.0851 61.8313C33.1447 61.9353 33.3596 62.0185 33.5638 62.0147C33.7681 62.0128 35.2766 61.3208 36.9149 60.4793C38.5532 59.636 40.4191 58.6906 41.0638 58.3786C41.7085 58.0647 42.3128 57.7565 42.4085 57.6941C42.5043 57.6298 42.6064 57.0228 42.634 56.3478C42.6681 55.5423 42.8383 54.8578 43.1298 54.3624C43.3745 53.9464 43.8936 53.3546 44.2872 53.0464C44.6787 52.74 45.4319 52.3335 45.9574 52.1463C46.5894 51.9213 47.2766 51.8305 47.9787 51.8797ZM45.7468 55.1509C45.4574 55.4988 45.3064 55.9658 45.3128 56.4896C45.317 57.1249 45.4532 57.4124 45.9574 57.8605C46.3085 58.1725 46.8596 58.475 47.1809 58.5317C47.5021 58.5885 48.0532 58.5393 48.4043 58.424C48.7553 58.3067 49.2128 58.0685 49.4234 57.8945C49.6319 57.7206 49.9064 57.28 50.0298 56.9151C50.2149 56.3724 50.1851 56.1209 49.8617 55.5215C49.6447 55.1187 49.2043 54.6706 48.883 54.5288C48.5617 54.3851 48.034 54.2735 47.7128 54.2792C47.3915 54.2868 46.917 54.3643 46.6574 54.4532C46.4 54.542 45.9894 54.8559 45.7468 55.1509ZM35.0532 64.1949L35.0766 66.653L42.9787 70.7184C43.6234 70.0584 44.2213 69.6841 44.7255 69.4609C45.2277 69.2378 45.8064 69.0052 46.0106 68.9409C46.3489 68.8369 46.383 68.4644 46.3851 64.8094L46.3894 60.7913C45.3128 60.4396 44.8085 60.1617 44.5745 59.9442C44.3404 59.7268 44.1 59.5604 44.0426 59.5717C43.983 59.585 41.9383 60.6306 39.4957 61.8956L35.0532 64.1949ZM49.2 60.6987C48.9957 60.6968 48.934 61.6271 48.9298 64.7149L48.9255 68.7329C50.6638 69.3872 51.466 69.8126 51.8277 70.1L52.4872 70.6238C56.2468 68.697 57.9128 67.8613 58.6149 67.5209C59.317 67.1824 59.9872 66.8213 60.1043 66.7211C60.2213 66.6209 60.3277 66.0101 60.3404 65.3653L60.366 64.1949C56.3702 62.1603 54.3489 61.1147 53.2957 60.5587C52.2426 60.0047 51.3809 59.5585 51.3809 59.5698C51.3809 59.5812 50.9511 59.8402 50.4234 60.1465C49.8979 60.451 49.3468 60.7006 49.2 60.6987ZM27.7723 64.7149C27.4936 65.3162 27.4872 65.5147 27.7277 66.0385C27.8809 66.375 28.2894 66.8459 28.6319 67.0841C29.034 67.364 29.5362 67.5133 30.0511 67.5096C30.6234 67.5058 31.0596 67.3432 31.5936 66.9366C32.2617 66.428 32.3383 66.2692 32.3383 65.4239C32.3383 64.6241 32.2404 64.3896 31.7 63.9112C31.1681 63.4366 30.8936 63.344 30.0511 63.3478C29.4234 63.3497 28.8638 63.4745 28.5702 63.6787C28.3128 63.8583 27.9532 64.3235 27.7723 64.7149ZM63.3489 64.2913C63.1447 64.6014 62.9766 65.1535 62.9766 65.5185C62.9766 66.0215 63.1553 66.3372 63.7213 66.8421C64.3553 67.4056 64.6106 67.5039 65.4404 67.5039C66.2149 67.5039 66.5362 67.398 67.0128 66.9839C67.3404 66.6965 67.6787 66.2086 67.7638 65.8967C67.8468 65.5847 67.8468 65.1157 67.7638 64.8567C67.6787 64.5957 67.334 64.1495 66.9957 63.864C66.5149 63.4555 66.1851 63.3459 65.4766 63.3553C64.9808 63.3629 64.3808 63.4499 64.1468 63.5482C63.9128 63.6465 63.5553 63.9812 63.3489 64.2913ZM31.8596 69.6065L31.2745 69.7729C31.2745 77.5255 31.3511 79.2272 31.4872 79.2272C31.6043 79.2272 32.1319 79.4825 32.6574 79.7945L33.6149 80.3618L41.4213 76.2964C41.2574 74.0614 41.3064 73.2994 41.4362 73.0819C41.617 72.7718 41.5766 72.6659 41.2 72.4958C40.9489 72.3823 40.4085 72.1195 39.9979 71.9115C39.5894 71.7054 39.0149 71.4142 38.7213 71.2686C38.4298 71.1211 38.0468 70.9074 37.8702 70.7921C37.6957 70.6768 37.0255 70.3269 36.3809 70.015C35.7383 69.7049 34.8532 69.2662 34.4128 69.0431C33.9745 68.8199 33.5915 68.6403 33.5617 68.6441C33.534 68.6479 33.2702 68.8275 32.9766 69.0468C32.6851 69.2643 32.183 69.5158 31.8596 69.6065ZM57.7617 70.6919C54.0745 72.5865 53.8574 72.7302 53.9851 73.1765C54.0574 73.4355 54.1191 74.0311 54.1191 74.5001C54.1191 74.9671 54.0574 75.5627 53.983 75.8237C53.8532 76.268 54.0723 76.4117 57.7745 78.3291L61.7 80.3618C62.9383 79.6168 63.4638 79.3615 63.6681 79.3142C64.0106 79.2329 64.0404 78.8472 64.034 74.5474L64.0255 69.8675L61.6723 68.6819L57.7617 70.6919ZM44.6234 72.6622C44.1681 73.2786 44.0362 73.6832 44.0383 74.4509C44.0404 74.9974 44.1766 75.6781 44.3426 75.9636C44.5064 76.2491 44.9149 76.7105 45.2468 76.9885C45.5787 77.2645 46.2574 77.5841 46.7553 77.6975C47.2936 77.8185 47.9809 77.8412 48.4574 77.7505C48.8957 77.6673 49.566 77.412 49.9468 77.1832C50.3255 76.9544 50.8 76.4912 50.9979 76.1527C51.2106 75.7915 51.3596 75.1089 51.3596 74.4982C51.3596 73.8874 51.2106 73.2048 50.9979 72.8437C50.8 72.5052 50.2298 71.9985 49.734 71.7148C49.1809 71.3991 48.4574 71.1759 47.8723 71.14C47.2106 71.0965 46.6511 71.2005 46.0638 71.4709C45.5936 71.6884 44.9468 72.2235 44.6234 72.6622ZM41.0638 79.2688C40.5362 79.5317 38.9681 80.3315 37.5787 81.0462L35.0511 82.3453L35.0553 84.8034L44.0426 89.436C45.2787 88.6929 45.8043 88.4376 46.0106 88.3885C46.3511 88.3091 46.383 87.9441 46.383 84.1416C46.383 80.305 46.3532 79.9817 46.0106 79.9836C45.8043 79.9836 45.2553 79.804 44.7872 79.5846C44.3191 79.3653 43.6915 78.9833 43.3936 78.7356C42.917 78.3404 42.8 78.3158 42.4362 78.539C42.2064 78.677 41.5894 79.006 41.0638 79.2688ZM51.9596 78.7091C51.7213 78.9417 51.1085 79.3199 50.6021 79.5525C50.0957 79.7832 49.5128 79.9741 49.3085 79.9779C48.9638 79.9817 48.934 80.3069 48.9298 84.0943L48.9234 88.2069C50.1702 88.708 50.7234 88.9784 50.9574 89.1297C51.3511 89.385 51.7149 89.2337 55.8511 87.0951L60.3191 84.7826V82.3585C56.0319 80.1349 54.2489 79.2197 53.5915 78.8888L52.3957 78.2875L51.9596 78.7091ZM27.7745 82.8653C27.4723 83.5176 27.4766 83.6386 27.8298 84.3779C28.134 85.0114 28.4043 85.2515 29.1064 85.5125C29.9085 85.8093 30.0787 85.815 30.7979 85.5692C31.2362 85.4179 31.7617 85.0776 31.9681 84.8128C32.1872 84.5292 32.3404 83.9809 32.3404 83.4798C32.3404 82.7858 32.2213 82.523 31.7021 82.0616C31.1702 81.5889 30.8957 81.4944 30.0532 81.4982C29.4234 81.5019 28.8638 81.6267 28.5723 81.8291C28.3128 82.0087 27.9532 82.4757 27.7745 82.8653ZM62.9511 83.58C62.9702 84.1094 63.1511 84.5009 63.5638 84.9093C63.8851 85.2288 64.4596 85.5692 64.8404 85.6656C65.3702 85.8018 65.7128 85.7658 66.317 85.5125C66.7489 85.3309 67.2745 84.9263 67.4851 84.6143C67.6979 84.3023 67.8702 83.8561 67.8702 83.6216C67.8723 83.3871 67.7277 82.9409 67.5532 82.6289C67.3766 82.3169 67.017 81.9331 66.7553 81.7761C66.4915 81.6192 65.8298 81.4925 65.2851 81.4925C64.4255 81.4944 64.2064 81.5814 63.6106 82.1619C63.0617 82.697 62.9298 82.9806 62.9511 83.58ZM45.5851 91.5784C45.4383 91.8563 45.3191 92.3385 45.3191 92.6505C45.3191 92.9625 45.4255 93.4087 45.5553 93.6432C45.6872 93.8776 45.9979 94.2161 46.2468 94.3957C46.5149 94.5886 47.0723 94.7229 47.6064 94.7266C48.1617 94.7285 48.7553 94.5848 49.1489 94.3523C49.5319 94.1235 49.8809 93.6923 50.0255 93.265C50.2255 92.6675 50.2021 92.4387 49.866 91.8204C49.6468 91.4157 49.2277 90.9808 48.9362 90.8523C48.6426 90.7237 48.2128 90.5667 47.9787 90.5062C47.7447 90.4438 47.1702 90.5459 46.7021 90.7331C46.2213 90.926 45.734 91.2947 45.5851 91.5784ZM169.202 65.8267C169.289 65.8116 169.623 65.891 169.947 66.0044C170.268 66.116 170.602 66.307 170.687 66.4299C170.774 66.5509 170.845 67.0974 170.851 68.6365H172.553C173.97 68.6365 174.326 68.6989 174.681 69.0147C174.915 69.2227 175.104 69.5838 175.102 69.8183C175.102 70.0528 175.051 70.4139 174.994 70.6219C174.936 70.8299 174.649 71.106 174.357 71.2364C174.068 71.3669 173.16 71.4728 170.851 71.4728L170.847 73.8837C170.845 75.2092 170.938 76.5498 171.055 76.8618C171.174 77.1832 171.474 77.4895 171.749 77.569C172.015 77.6446 172.736 77.7089 173.351 77.7108C174.27 77.7127 174.523 77.7883 174.787 78.1381C174.964 78.3726 175.109 78.8396 175.106 79.1781C175.106 79.5714 174.934 79.9344 174.628 80.1859C174.204 80.5319 173.936 80.5698 172.34 80.5111C171.085 80.4658 170.274 80.3296 169.696 80.0706C169.236 79.8663 168.643 79.3993 168.377 79.0363C168.111 78.6713 167.794 77.9906 167.674 77.5236C167.555 77.0546 167.453 74.5247 167.451 71.8983C167.447 67.8083 167.496 67.0444 167.796 66.5698C167.989 66.2654 168.349 65.9799 168.594 65.9345C168.84 65.8891 169.113 65.8399 169.202 65.8267ZM150.834 64.8548C151.077 64.8548 151.564 65.1101 151.915 65.422C152.266 65.734 152.553 66.1595 152.553 66.3675C152.553 66.5755 152.385 66.9593 152.181 67.2203C151.974 67.4831 151.568 67.7421 151.277 67.7989C150.983 67.8537 150.504 67.8121 150.213 67.7043C149.919 67.5965 149.56 67.294 149.415 67.0331C149.268 66.7702 149.155 66.4223 149.164 66.2578C149.174 66.0933 149.453 65.7114 149.787 65.4069C150.119 65.1025 150.591 64.8548 150.834 64.8548ZM114.681 65.9458C114.972 65.9912 115.383 66.2124 115.594 66.4337C115.847 66.7041 115.972 67.1427 115.957 68.6365L117.5 68.629C118.715 68.6214 119.155 68.6989 119.574 68.9901C119.97 69.2643 120.106 69.5366 120.106 70.0547C120.106 70.5709 119.97 70.845 119.574 71.1192C119.155 71.4104 118.715 71.486 115.957 71.4728V74.3091C115.957 77.0395 115.974 77.1567 116.436 77.4309C116.717 77.5973 117.398 77.7164 118.085 77.7164C118.728 77.7183 119.36 77.7807 119.489 77.8564C119.617 77.9339 119.832 78.1873 119.968 78.4217C120.102 78.6562 120.215 78.9966 120.219 79.1781C120.223 79.3596 120.032 79.7434 119.794 80.029C119.381 80.5244 119.277 80.549 117.606 80.5452C116.377 80.5414 115.596 80.4374 115 80.1991C114.532 80.0101 113.885 79.5865 113.564 79.2575C113.24 78.9285 112.883 78.3385 112.766 77.949C112.651 77.5595 112.553 74.8991 112.551 72.0401C112.549 67.5833 112.598 66.7816 112.887 66.428C113.074 66.2011 113.434 65.9799 113.687 65.9383C113.94 65.8967 114.387 65.8985 114.681 65.9458ZM77.9723 68.6687C82.0149 68.7311 82.0617 68.7367 82.9404 69.251C83.4298 69.5366 83.9617 70.0055 84.1234 70.291C84.283 70.5765 84.5234 71.2572 84.6553 71.8037C84.7851 72.3502 84.8936 74.2429 84.8936 76.0109C84.8936 78.3385 84.8128 79.3691 84.6043 79.7453C84.4447 80.0309 84.1575 80.3296 83.966 80.4071C83.7745 80.4847 83.3766 80.5489 83.0851 80.5489C82.7915 80.5489 82.3617 80.4639 82.1277 80.3599C81.8936 80.2559 81.6043 79.8947 81.4851 79.5562C81.366 79.2178 81.2681 77.4101 81.2681 75.5382C81.2702 73.6662 81.1787 72.006 81.0681 71.851C80.9128 71.6335 80.3426 71.556 76.383 71.4728L76.3787 75.5854C76.3745 79.5808 76.3596 79.7094 75.9 80.1273C75.5851 80.4128 75.1723 80.5584 74.6809 80.5603C74.1936 80.5603 73.7894 80.4223 73.5106 80.1575C73.1128 79.7794 73.0809 79.4485 73.017 75.0938C72.9809 72.5298 73.0043 70.1568 73.0702 69.8183C73.1362 69.4798 73.3489 69.0695 73.5404 68.905C73.8404 68.6516 74.4851 68.6176 77.9723 68.6687ZM92.234 68.6365C96.9489 68.6365 97.2574 68.6573 97.6596 69.0147C97.9213 69.2492 98.0851 69.6443 98.0851 70.0547C98.0851 70.5576 97.9447 70.8091 97.5 71.1003C96.9638 71.452 96.6064 71.486 89.7872 71.4728V72.9855L92.4234 73.0328C94.7255 73.0744 95.1213 73.1273 95.517 73.4582C95.8277 73.7173 95.9681 74.0595 95.9638 74.5455C95.9596 74.9955 95.8021 75.3926 95.5319 75.6327C95.1511 75.9712 94.8213 76.0109 89.7872 76.0109V76.5781C89.7872 76.9563 89.9468 77.2406 90.266 77.4309C90.6426 77.654 91.4596 77.7145 94.0957 77.7145C97.334 77.7127 97.4574 77.7259 97.766 78.1381C97.9426 78.3726 98.0872 78.8396 98.0851 79.1781C98.0851 79.5752 97.9149 79.9269 97.6064 80.1746C97.1638 80.5282 96.8468 80.5565 93.4043 80.5489C90.2809 80.5414 89.5426 80.4847 88.8298 80.1991C88.3617 80.0101 87.7149 79.5865 87.3936 79.2575C87.0702 78.9285 86.7128 78.3385 86.5957 77.949C86.4809 77.5595 86.3851 75.4739 86.383 73.3164C86.383 69.6443 86.4085 69.3683 86.8085 69.0147C87.2085 68.6573 87.517 68.6365 92.234 68.6365ZM101.415 68.6365C102.045 68.6365 102.268 68.7953 103.351 70.0055C104.023 70.76 104.74 71.5466 105.319 72.1346L105.691 71.7545C105.896 71.5447 106.445 70.949 106.913 70.4309C107.379 69.911 107.974 69.2964 108.232 69.062C108.491 68.8275 108.97 68.6327 109.298 68.629C109.626 68.6271 110.155 68.7972 110.479 69.0071C110.889 69.2794 111.064 69.5611 111.064 69.9601C111.064 70.3307 110.787 70.8356 110.266 71.4199C109.826 71.9115 109.353 72.4428 109.215 72.6017C109.074 72.7605 108.621 73.2521 107.447 74.4982L108.162 75.3018C108.553 75.7443 109.368 76.6576 109.972 77.3345C110.647 78.0908 111.066 78.7451 111.062 79.0363C111.06 79.2953 110.794 79.7453 110.474 80.0327C110.151 80.3239 109.657 80.5584 109.362 80.5603C109.068 80.5622 108.589 80.3561 108.298 80.1027C108.004 79.8512 107.238 79.04 106.596 78.3045C105.951 77.5671 105.377 76.9658 105.319 76.9677C105.26 76.9695 104.685 77.5727 104.043 78.3102C103.398 79.0457 102.643 79.8512 102.364 80.0989C102.085 80.3466 101.606 80.5471 101.3 80.5452C100.983 80.5433 100.489 80.3183 100.155 80.0252C99.8234 79.7359 99.5638 79.301 99.5638 79.0363C99.5638 78.7262 100.189 77.8601 103.191 74.4982L102.166 73.4109C101.602 72.8134 100.785 71.8983 100.351 71.3783C99.9149 70.8583 99.5553 70.204 99.5468 69.9261C99.5383 69.5857 99.7255 69.2908 100.117 69.0279C100.44 68.8124 101.023 68.6365 101.415 68.6365ZM126.504 68.6724C130.526 68.7311 130.572 68.7367 131.451 69.251C131.94 69.5366 132.506 70.0471 132.711 70.3856C133.013 70.8847 133.096 71.5995 133.151 74.2146C133.206 76.8202 133.155 77.5727 132.879 78.1854C132.694 78.6014 132.374 79.1232 132.174 79.3464C131.972 79.5695 131.377 79.9287 130.851 80.1462C130.053 80.4733 129.472 80.5414 124.894 80.5489L124.898 81.9198C124.9 83.0317 124.821 83.3701 124.472 83.7161C124.172 84.0111 123.8 84.1416 123.245 84.1454C122.804 84.1473 122.255 84.0262 122.021 83.8769C121.609 83.6121 121.596 83.3871 121.596 76.3891C121.596 69.3929 121.609 69.1641 122.021 68.8937C122.37 68.663 123.179 68.6233 126.504 68.6724ZM124.894 77.7127C128.487 77.6313 129.187 77.5368 129.445 77.3345C129.751 77.0943 129.804 76.6708 129.796 74.5455C129.787 72.163 129.764 72.0268 129.309 71.7545C128.966 71.5522 128.264 71.4709 126.862 71.4709L124.894 71.4728V77.7127ZM140.585 68.6535C142.5 68.6403 143.402 68.714 143.989 68.9315C144.428 69.0941 144.964 69.3702 145.181 69.546C145.398 69.7219 145.757 70.1851 145.979 70.5746C146.326 71.1854 146.383 71.7243 146.387 74.4509C146.391 76.8637 146.317 77.7751 146.072 78.2799C145.896 78.643 145.581 79.1232 145.374 79.3464C145.168 79.5695 144.568 79.9287 144.043 80.1462C143.26 80.4695 142.657 80.5414 140.745 80.5471C139.034 80.5508 138.121 80.4639 137.355 80.2199C136.696 80.0101 136.083 79.6413 135.706 79.2253C135.355 78.8358 135.009 78.1343 134.87 77.5236C134.73 76.9166 134.67 75.419 134.723 73.9309C134.785 72.2462 134.923 71.1533 135.134 70.7165C135.311 70.3515 135.734 69.8183 136.079 69.529C136.421 69.2416 136.989 68.9296 137.34 68.8369C137.691 68.7462 139.151 68.663 140.585 68.6535ZM138.347 72.0136C138.164 72.2254 138.077 73.0498 138.077 74.5927C138.077 76.2624 138.157 76.962 138.383 77.2399C138.649 77.5671 138.932 77.6181 140.532 77.6181C142.247 77.6181 142.406 77.5841 142.794 77.1454C143.153 76.7351 143.206 76.3815 143.194 74.4982C143.181 72.8683 143.096 72.2292 142.855 71.9455C142.589 71.6316 142.251 71.5598 140.894 71.5258C139.991 71.5031 139.111 71.5333 138.936 71.5938C138.76 71.6562 138.496 71.8434 138.347 72.0136ZM150.213 68.646C151.436 68.646 151.896 68.7216 152.187 68.9712C152.534 69.27 152.566 69.754 152.56 74.5455C152.553 79.5354 152.532 79.8115 152.128 80.1708C151.877 80.392 151.417 80.549 151.011 80.5508C150.63 80.5508 150.102 80.4242 149.84 80.2672C149.366 79.9855 149.362 79.9287 149.37 71.5674L148.728 71.4255C148.304 71.331 148.006 71.106 147.857 70.7637C147.732 70.4782 147.696 69.9696 147.774 69.6349C147.853 69.2983 148.077 68.9391 148.268 68.8369C148.46 68.7329 149.334 68.6479 150.213 68.646ZM159.234 68.6687C163.196 68.7292 163.355 68.7462 164.117 69.2038C164.549 69.4628 165.117 69.9734 165.377 70.3383C165.828 70.9661 165.853 71.2194 165.904 75.3963C165.953 79.5733 165.936 79.8115 165.532 80.1708C165.262 80.4109 164.815 80.5508 164.309 80.5546C163.762 80.5584 163.377 80.4336 163.085 80.1575C162.691 79.785 162.653 79.4523 162.6 75.9447C162.543 72.267 162.523 72.1233 162.068 71.7961C161.687 71.522 161.211 71.4577 157.66 71.4728L157.666 75.4909C157.672 79.2405 157.645 79.543 157.24 80.029C156.9 80.4374 156.636 80.5471 156.011 80.5452C155.477 80.5426 155.05 80.4008 154.728 80.1197C154.247 79.7018 154.245 79.6602 154.249 74.5455C154.255 69.5838 154.27 69.3777 154.696 68.9996C155.119 68.6252 155.323 68.61 159.234 68.6687ZM47.7021 72.9893C48.1362 72.9912 48.5872 73.1538 48.8872 73.4147C49.1979 73.6851 49.3702 74.0557 49.366 74.4509C49.3638 74.8442 49.1723 75.2356 48.8383 75.5382C48.5085 75.8369 48.0787 76.0109 47.6681 76.0109C47.234 76.0109 46.8426 75.8388 46.4809 75.4909C46.1574 75.177 45.9489 74.761 45.9596 74.4415C45.9681 74.1522 46.2064 73.704 46.4894 73.4488C46.8312 73.1399 47.2355 72.9868 47.7021 72.9893Z" fill="white"/>
</svg>
