<svg width="13" height="13" viewBox="0 0 13 13" fill="none" xmlns="http://www.w3.org/2000/svg">
<mask id="path-1-inside-1_147_51" fill="white">
<path d="M7.402 10.8492C7.30709 10.8492 7.23022 10.926 7.23022 11.0209V12.8283C7.23022 12.9232 7.30709 13 7.402 13H12.8282C12.9232 13 13 12.9232 13 12.8283V0.171782C13 0.0769362 12.9232 0.000126125 12.8282 0.000126125L7.402 0C7.30709 0 7.23022 0.0768101 7.23022 0.171656V1.97914C7.23022 2.07398 7.30709 2.15079 7.402 2.15079H10.8521V10.8492L7.402 10.8492ZM11.0195 1.81213H7.56937V0.343541H12.6564V12.6569H7.57389V11.1883H11.0195C11.1144 11.1883 11.1913 11.1115 11.1913 11.0166V1.97956C11.1913 1.88471 11.1144 1.81244 11.0195 1.81244V1.81213Z"/>
</mask>
<path d="M7.402 10.8492C7.30709 10.8492 7.23022 10.926 7.23022 11.0209V12.8283C7.23022 12.9232 7.30709 13 7.402 13H12.8282C12.9232 13 13 12.9232 13 12.8283V0.171782C13 0.0769362 12.9232 0.000126125 12.8282 0.000126125L7.402 0C7.30709 0 7.23022 0.0768101 7.23022 0.171656V1.97914C7.23022 2.07398 7.30709 2.15079 7.402 2.15079H10.8521V10.8492L7.402 10.8492ZM11.0195 1.81213H7.56937V0.343541H12.6564V12.6569H7.57389V11.1883H11.0195C11.1144 11.1883 11.1913 11.1115 11.1913 11.0166V1.97956C11.1913 1.88471 11.1144 1.81244 11.0195 1.81244V1.81213Z" fill="white"/>
<path d="M7.402 10.8492V11.8492H7.40201L7.402 10.8492ZM12.8282 0.000126125L12.8282 1.00013H12.8282V0.000126125ZM7.402 0L7.40202 -1H7.402V0ZM10.8521 2.15079H11.8521V1.15079H10.8521V2.15079ZM10.8521 10.8492L10.8521 11.8492L11.8521 11.8492V10.8492H10.8521ZM11.0195 1.81213H12.0195V0.812128H11.0195V1.81213ZM7.56937 1.81213H6.56937V2.81213H7.56937V1.81213ZM7.56937 0.343541V-0.656459H6.56937V0.343541H7.56937ZM12.6564 0.343541H13.6564V-0.656459H12.6564V0.343541ZM12.6564 12.6569V13.6569H13.6564V12.6569H12.6564ZM7.57389 12.6569H6.57389V13.6569H7.57389V12.6569ZM7.57389 11.1883V10.1883H6.57389V11.1883H7.57389ZM11.0195 1.81244H10.0195V2.81244H11.0195V1.81244ZM7.402 10.8492V9.84921C6.75546 9.84921 6.23022 10.3731 6.23022 11.0209H7.23022H8.23022C8.23022 11.479 7.85872 11.8492 7.402 11.8492V10.8492ZM7.23022 11.0209H6.23022V12.8283H7.23022H8.23022V11.0209H7.23022ZM7.23022 12.8283H6.23022C6.23022 13.4761 6.75546 14 7.402 14V13V12C7.85872 12 8.23022 12.3703 8.23022 12.8283H7.23022ZM7.402 13V14H12.8282V13V12H7.402V13ZM12.8282 13V14C13.4748 14 14 13.4761 14 12.8283H13H12C12 12.3702 12.3715 12 12.8282 12V13ZM13 12.8283H14V0.171782H13H12V12.8283H13ZM13 0.171782H14C14 -0.47601 13.4748 -0.999874 12.8282 -0.999874V0.000126125V1.00013C12.3715 1.00013 12 0.629882 12 0.171782H13ZM12.8282 0.000126125L12.8283 -0.999874L7.40202 -1L7.402 0L7.40198 1L12.8282 1.00013L12.8282 0.000126125ZM7.402 0V-1C6.75546 -1 6.23022 -0.476128 6.23022 0.171656H7.23022H8.23022C8.23022 0.629748 7.85872 1 7.402 1V0ZM7.23022 0.171656H6.23022V1.97914H7.23022H8.23022V0.171656H7.23022ZM7.23022 1.97914H6.23022C6.23022 2.62692 6.75546 3.15079 7.402 3.15079V2.15079V1.15079C7.85872 1.15079 8.23022 1.52104 8.23022 1.97914H7.23022ZM7.402 2.15079V3.15079H10.8521V2.15079V1.15079H7.402V2.15079ZM10.8521 2.15079H9.85213V10.8492H10.8521H11.8521V2.15079H10.8521ZM10.8521 10.8492L10.8521 9.84917L7.40199 9.84921L7.402 10.8492L7.40201 11.8492L10.8521 11.8492L10.8521 10.8492ZM11.0195 1.81213V0.812128H7.56937V1.81213V2.81213H11.0195V1.81213ZM7.56937 1.81213H8.56937V0.343541H7.56937H6.56937V1.81213H7.56937ZM7.56937 0.343541V1.34354H12.6564V0.343541V-0.656459H7.56937V0.343541ZM12.6564 0.343541H11.6564V12.6569H12.6564H13.6564V0.343541H12.6564ZM12.6564 12.6569V11.6569H7.57389V12.6569V13.6569H12.6564V12.6569ZM7.57389 12.6569H8.57389V11.1883H7.57389H6.57389V12.6569H7.57389ZM7.57389 11.1883V12.1883H11.0195V11.1883V10.1883H7.57389V11.1883ZM11.0195 11.1883V12.1883C11.666 12.1883 12.1913 11.6644 12.1913 11.0166H11.1913H10.1913C10.1913 10.5585 10.5628 10.1883 11.0195 10.1883V11.1883ZM11.1913 11.0166H12.1913V1.97956H11.1913H10.1913V11.0166H11.1913ZM11.1913 1.97956H12.1913C12.1913 1.29702 11.6306 0.812444 11.0195 0.812444V1.81244V2.81244C10.5982 2.81244 10.1913 2.47241 10.1913 1.97956H11.1913ZM11.0195 1.81244H12.0195V1.81213H11.0195H10.0195V1.81244H11.0195Z" fill="white" mask="url(#path-1-inside-1_147_51)"/>
<mask id="path-3-inside-2_147_51" fill="white">
<path d="M4.14184 9.34869C4.16898 9.36672 4.2052 9.37581 4.23676 9.37581C4.26389 9.37581 4.29103 9.37126 4.31816 9.35777C4.37243 9.32611 4.40866 9.27188 4.40866 9.20869V8.02033L9.66301 8.02021C9.75792 8.02021 9.83479 7.94339 9.83479 7.84855V5.13736C9.83479 5.04251 9.75792 4.9657 9.66301 4.9657L4.40866 4.96558V3.78632C4.40866 3.72301 4.37243 3.66436 4.31816 3.63724C4.26389 3.61013 4.19612 3.61013 4.14639 3.64633L0.0768634 6.35751C0.0316803 6.38917 0 6.44341 0 6.49764C0 6.55187 0.0271355 6.60611 0.0768634 6.63776L4.14184 9.34869ZM4.06952 4.10254V5.14182C4.06952 5.23667 4.14639 5.31348 4.2413 5.31348H9.50018V7.68577H4.23678C4.14186 7.68577 4.065 7.76258 4.065 7.85743V8.89671L0.474643 6.49743L4.06952 4.10254Z"/>
</mask>
<path d="M4.14184 9.34869C4.16898 9.36672 4.2052 9.37581 4.23676 9.37581C4.26389 9.37581 4.29103 9.37126 4.31816 9.35777C4.37243 9.32611 4.40866 9.27188 4.40866 9.20869V8.02033L9.66301 8.02021C9.75792 8.02021 9.83479 7.94339 9.83479 7.84855V5.13736C9.83479 5.04251 9.75792 4.9657 9.66301 4.9657L4.40866 4.96558V3.78632C4.40866 3.72301 4.37243 3.66436 4.31816 3.63724C4.26389 3.61013 4.19612 3.61013 4.14639 3.64633L0.0768634 6.35751C0.0316803 6.38917 0 6.44341 0 6.49764C0 6.55187 0.0271355 6.60611 0.0768634 6.63776L4.14184 9.34869ZM4.06952 4.10254V5.14182C4.06952 5.23667 4.14639 5.31348 4.2413 5.31348H9.50018V7.68577H4.23678C4.14186 7.68577 4.065 7.76258 4.065 7.85743V8.89671L0.474643 6.49743L4.06952 4.10254Z" fill="white"/>
<path d="M4.14184 9.34869L3.58701 10.1807L3.58831 10.1815L4.14184 9.34869ZM4.31816 9.35777L4.76348 10.2531L4.79327 10.2383L4.82202 10.2216L4.31816 9.35777ZM4.40866 8.02033L4.40863 7.02033L3.40866 7.02036V8.02033H4.40866ZM9.66301 8.02021V7.02021H9.66299L9.66301 8.02021ZM9.66301 4.9657L9.66299 5.9657H9.66301V4.9657ZM4.40866 4.96558H3.40866V5.96555L4.40863 5.96558L4.40866 4.96558ZM4.31816 3.63724L4.76515 2.7427L4.76512 2.74269L4.31816 3.63724ZM4.14639 3.64633L4.70083 4.47855L4.7181 4.46704L4.73489 4.45482L4.14639 3.64633ZM0.0768634 6.35751L-0.477578 5.52529L-0.487344 5.5318L-0.496954 5.53853L0.0768634 6.35751ZM0.0768634 6.63776L0.631697 5.8058L0.62284 5.79989L0.61386 5.79418L0.0768634 6.63776ZM4.06952 4.10254H5.06952V2.23476L3.51509 3.27031L4.06952 4.10254ZM9.50018 5.31348H10.5002V4.31348H9.50018V5.31348ZM9.50018 7.68577V8.68577H10.5002V7.68577H9.50018ZM4.065 8.89671L3.50938 9.72815L5.065 10.7677V8.89671H4.065ZM0.474643 6.49743L-0.079785 5.6652L-1.32709 6.49614L-0.0809732 7.32887L0.474643 6.49743ZM4.14184 9.34869L3.58831 10.1815C3.80617 10.3263 4.04296 10.3758 4.23676 10.3758V9.3758V8.3758C4.31319 8.3758 4.38569 8.38628 4.45373 8.40506C4.52086 8.42359 4.60591 8.45639 4.69538 8.51586L4.14184 9.34869ZM4.23676 9.3758V10.3758C4.38131 10.3758 4.5682 10.3503 4.76348 10.2531L4.31816 9.35777L3.87285 8.4624C4.01386 8.39226 4.14647 8.3758 4.23676 8.3758V9.3758ZM4.31816 9.35777L4.82202 10.2216C5.13424 10.0394 5.40866 9.68114 5.40866 9.20869H4.40866H3.40866C3.40866 8.86262 3.61063 8.61279 3.81431 8.49398L4.31816 9.35777ZM4.40866 9.20869H5.40866V8.02033H4.40866H3.40866V9.20869H4.40866ZM4.40866 8.02033L4.40868 9.02033L9.66304 9.02021L9.66301 8.02021L9.66299 7.02021L4.40863 7.02033L4.40866 8.02033ZM9.66301 8.02021V9.02021C10.3095 9.02021 10.8348 8.49634 10.8348 7.84855H9.83479H8.83479C8.83479 7.39045 9.2063 7.02021 9.66301 7.02021V8.02021ZM9.83479 7.84855H10.8348V5.13736H9.83479H8.83479V7.84855H9.83479ZM9.83479 5.13736H10.8348C10.8348 4.48957 10.3095 3.9657 9.66301 3.9657V4.9657V5.9657C9.2063 5.9657 8.83479 5.59546 8.83479 5.13736H9.83479ZM9.66301 4.9657L9.66304 3.9657L4.40868 3.96558L4.40866 4.96558L4.40863 5.96558L9.66299 5.9657L9.66301 4.9657ZM4.40866 4.96558H5.40866V3.78632H4.40866H3.40866V4.96558H4.40866ZM4.40866 3.78632H5.40866C5.40866 3.3535 5.16662 2.94331 4.76515 2.7427L4.31816 3.63724L3.87118 4.53179C3.57825 4.38542 3.40866 4.09252 3.40866 3.78632H4.40866ZM4.31816 3.63724L4.76512 2.74269C4.44187 2.58118 3.9643 2.54201 3.55788 2.83783L4.14639 3.64633L4.73489 4.45482C4.42794 4.67825 4.08591 4.63907 3.8712 4.5318L4.31816 3.63724ZM4.14639 3.64633L3.59194 2.8141L-0.477578 5.52529L0.0768634 6.35751L0.631305 7.18974L4.70083 4.47855L4.14639 3.64633ZM0.0768634 6.35751L-0.496954 5.53853C-0.771914 5.73118 -1 6.07416 -1 6.49764H0H1C1 6.66367 0.952549 6.80287 0.894563 6.9067C0.836516 7.01064 0.754671 7.10364 0.650681 7.1765L0.0768634 6.35751ZM0 6.49764H-1C-1 6.87739 -0.811752 7.25752 -0.460133 7.48134L0.0768634 6.63776L0.61386 5.79418C0.866023 5.95469 1 6.22635 1 6.49764H0ZM0.0768634 6.63776L-0.47797 7.46972L3.58701 10.1806L4.14184 9.34869L4.69668 8.51673L0.631697 5.8058L0.0768634 6.63776ZM4.06952 4.10254H3.06952V5.14182H4.06952H5.06952V4.10254H4.06952ZM4.06952 5.14182H3.06952C3.06952 5.78961 3.59475 6.31348 4.2413 6.31348V5.31348V4.31348C4.69802 4.31348 5.06952 4.68373 5.06952 5.14182H4.06952ZM4.2413 5.31348V6.31348H9.50018V5.31348V4.31348H4.2413V5.31348ZM9.50018 5.31348H8.50018V7.68577H9.50018H10.5002V5.31348H9.50018ZM9.50018 7.68577V6.68577H4.23678V7.68577V8.68577H9.50018V7.68577ZM4.23678 7.68577V6.68577C3.59024 6.68577 3.065 7.20964 3.065 7.85743H4.065H5.065C5.065 8.31553 4.69349 8.68577 4.23678 8.68577V7.68577ZM4.065 7.85743H3.065V8.89671H4.065H5.065V7.85743H4.065ZM4.065 8.89671L4.62062 8.06528L1.03026 5.66599L0.474643 6.49743L-0.0809732 7.32887L3.50938 9.72815L4.065 8.89671ZM0.474643 6.49743L1.02907 7.32966L4.62395 4.93477L4.06952 4.10254L3.51509 3.27031L-0.079785 5.6652L0.474643 6.49743Z" fill="white" mask="url(#path-3-inside-2_147_51)"/>
</svg>
