<svg width="20" height="20" viewBox="0 0 20 20" fill="none" xmlns="http://www.w3.org/2000/svg">
<path fill-rule="evenodd" clip-rule="evenodd" d="M10.984 9.0161V3.11298C10.984 2.56978 10.5435 2.12817 10.0001 2.12817C9.45767 2.12817 9.0161 2.56899 9.0161 3.11298V9.0161H3.11298C2.56978 9.0161 2.12817 9.45661 2.12817 10.0001C2.12817 10.5424 2.56899 10.984 3.11298 10.984H9.0161V16.8872C9.0161 17.4304 9.45661 17.8721 10.0001 17.8721C10.5424 17.8721 10.984 17.4311 10.984 16.8872V10.984H16.8872C17.4304 10.984 17.8721 10.5435 17.8721 10.0001C17.8721 9.45767 17.4311 9.0161 16.8872 9.0161H10.984Z" fill="white"/>
</svg>
