<svg width="20" height="20" viewBox="0 0 20 20" fill="none" xmlns="http://www.w3.org/2000/svg">
<path d="M15.7344 4.25977C13.4986 2.02391 9.85787 2.0184 7.61647 4.25977C6.534 5.34223 5.93268 6.7854 5.93268 8.31602C5.93268 9.382 6.22793 10.3988 6.769 11.29L2.98057 15.0838C2.72361 15.3407 2.58154 15.6851 2.58154 16.0513C2.58154 16.4175 2.7236 16.7619 2.98057 17.0189C3.23752 17.2759 3.58193 17.4179 3.94814 17.4179C4.31436 17.4179 4.65873 17.2759 4.91572 17.0189L8.70967 13.225C9.6226 13.777 10.6503 14.0559 11.6836 14.0559C13.1541 14.0559 14.6247 13.4984 15.7399 12.3776C16.8223 11.2952 17.4237 9.852 17.4237 8.32137C17.4237 6.79075 16.8223 5.34758 15.7345 4.25965L15.7344 4.25977ZM4.91568 16.2426C4.75714 16.4011 4.54398 16.4831 4.33615 16.4831C4.12848 16.4831 3.91518 16.4011 3.75662 16.2426C3.43954 15.9255 3.43954 15.4007 3.75662 15.0837C4.0737 14.7666 4.59846 14.7666 4.91553 15.0837C5.23276 15.4062 5.23276 15.9255 4.91568 16.2426ZM14.9633 11.607C14.0832 12.4872 12.9188 12.9683 11.6778 12.9683C10.4368 12.9683 9.26709 12.4872 8.39232 11.607C6.58279 9.79751 6.58279 6.84571 8.39232 5.03633C9.27244 4.15622 10.4369 3.67508 11.6778 3.67508C12.9188 3.67508 14.0832 4.15618 14.9633 5.03633C16.7782 6.84571 16.7782 9.79219 14.9633 11.607Z" fill="black"/>
<path d="M4.33639 15.3903C4.26528 15.3903 4.19433 15.4176 4.14504 15.4722C4.03564 15.5761 4.03564 15.751 4.14504 15.8604C4.25445 15.9698 4.42382 15.9698 4.53323 15.8604C4.64263 15.7565 4.64263 15.5816 4.53323 15.4722C4.47311 15.4176 4.402 15.3903 4.33639 15.3903Z" fill="black"/>
</svg>
