<svg width="23" height="21" viewBox="0 0 23 21" fill="none" xmlns="http://www.w3.org/2000/svg">
<path d="M19.2594 11.6206L16.636 12.4456L17.8558 14.7201L16.1218 16.3036L13.6235 15.1831L12.7196 17.5849H10.2727L9.36886 15.1831L6.87776 16.3036L5.14368 14.7201L6.36343 12.4391L3.74023 11.6138V9.37973L6.36343 8.55443L5.14368 6.27999L6.87776 4.69669L9.36886 5.81037L10.2727 3.41528H12.7196L13.6235 5.81037L16.1218 4.69669L17.8558 6.27999L16.6287 8.55443L19.2594 9.37973V11.6206Z" stroke="white" stroke-miterlimit="10" stroke-linecap="round" stroke-linejoin="round"/>
<path d="M13.8295 10.4979C13.8295 11.6719 12.7862 12.6246 11.5003 12.6246C10.2144 12.6246 9.17102 11.6719 9.17102 10.4979C9.17102 9.32379 10.2144 8.37769 11.5003 8.37769C12.7862 8.37769 13.8295 9.32379 13.8295 10.4979Z" stroke="white" stroke-miterlimit="10" stroke-linecap="round" stroke-linejoin="round"/>
</svg>
