<svg width="27" height="26" viewBox="0 0 27 26" fill="none" xmlns="http://www.w3.org/2000/svg">
<path d="M22.6088 14.3872L19.5292 15.4087L20.961 18.2247L18.9254 20.1852L15.9927 18.798L14.9316 21.7716H12.0591L10.9981 18.798L8.0738 20.1852L6.03815 18.2247L7.47003 15.4006L4.39062 14.3788V11.6128L7.47003 10.591L6.03815 7.77505L8.0738 5.81478L10.9981 7.19362L12.0591 4.22827H14.9316L15.9927 7.19362L18.9254 5.81478L20.961 7.77505L19.5205 10.591L22.6088 11.6128V14.3872Z" stroke="white" stroke-miterlimit="10" stroke-linecap="round" stroke-linejoin="round"/>
<path d="M16.2347 12.9973C16.2347 14.4509 15.0098 15.6304 13.5003 15.6304C11.9908 15.6304 10.766 14.4509 10.766 12.9973C10.766 11.5437 11.9908 10.3723 13.5003 10.3723C15.0098 10.3723 16.2347 11.5437 16.2347 12.9973Z" stroke="white" stroke-miterlimit="10" stroke-linecap="round" stroke-linejoin="round"/>
</svg>
