<svg width="25" height="25" viewBox="0 0 25 25" fill="none" xmlns="http://www.w3.org/2000/svg">
<path fill-rule="evenodd" clip-rule="evenodd" d="M1.58691 2.25293L10.0098 2.24609L10.2173 2.37598C10.3315 2.44775 10.4536 2.54102 10.4883 2.5835C10.5234 2.62646 10.5947 2.74902 10.646 2.85645C10.7344 3.04053 10.7402 3.18555 10.7451 7.6416L10.6064 7.91016C10.4907 8.1333 10.4229 8.20166 9.93652 8.4502L7.39746 8.44482L6.75049 9.1543C6.2583 9.69385 6.0625 9.875 5.93262 9.91211C5.7998 9.9502 5.72607 9.94385 5.60303 9.88379C5.51562 9.8418 5.16943 9.50195 4.22363 8.45215L1.52197 8.42285L1.31396 8.27637C1.19922 8.19531 1.05469 8.03174 0.875488 7.69043L0.90332 2.88916L1.0498 2.68359C1.13037 2.57031 1.28418 2.42725 1.3916 2.36523L1.58691 2.25293ZM1.84717 5.34277L1.85498 7.39795C2.82031 7.4541 3.45215 7.47168 3.88184 7.47266L4.66309 7.47461C5.00635 7.83105 5.26465 8.10498 5.4585 8.31348L5.81055 8.69189C6.20654 8.25635 6.46631 7.98193 6.64355 7.80078L6.96582 7.47119L9.69238 7.47168C9.74951 6.65772 9.76562 5.7124 9.76562 4.84668V3.27197C5.88672 3.27148 4.12354 3.25781 3.34473 3.24072C2.56592 3.22412 1.90869 3.22754 1.88379 3.24902C1.85791 3.27197 1.84229 4.14746 1.84717 5.34277ZM5.9082 10.6167C6.08301 10.6279 6.35742 10.6865 6.51855 10.7466C6.73584 10.8276 6.88769 10.9326 7.10644 11.1533C7.29736 11.3452 7.44434 11.5498 7.6416 12.0103H17.3584L17.4805 11.7339C17.5479 11.5815 17.6812 11.3677 17.7773 11.2583C17.8735 11.1494 18.0605 10.9897 18.1924 10.9033C18.3247 10.8174 18.5757 10.7104 18.75 10.666C18.9663 10.6104 19.1567 10.5937 19.3481 10.6147C19.5024 10.6313 19.7554 10.6934 19.9097 10.7529C20.0928 10.8232 20.2896 10.9546 20.4756 11.1313C20.6504 11.2969 20.8208 11.5205 21.0693 12.0156L22.876 12.0151C24.5156 12.0142 24.6924 12.022 24.7866 12.0986C24.8442 12.145 24.9155 12.2324 24.9453 12.293C24.9756 12.353 25 12.4468 25 12.5005C25 12.5542 24.9697 12.6582 24.9326 12.7324C24.8955 12.8062 24.8076 12.894 24.7373 12.9277C24.6421 12.9731 24.1577 12.9883 21.0693 12.9849L20.915 13.292C20.8208 13.48 20.6504 13.7036 20.4756 13.8691C20.2896 14.0459 20.0928 14.1772 19.9097 14.2476C19.7554 14.3071 19.5024 14.3691 19.3481 14.3857C19.1567 14.4067 18.9663 14.3901 18.75 14.335C18.5757 14.29 18.3247 14.1831 18.1924 14.0972C18.0605 14.0112 17.8735 13.8516 17.7773 13.7422C17.6812 13.6328 17.5479 13.4189 17.3584 12.9902H7.6416L7.52148 13.27C7.44434 13.4512 7.29736 13.6553 7.10644 13.8472C6.89307 14.0625 6.73047 14.1763 6.51855 14.2588C6.29346 14.3467 6.12939 14.373 5.81055 14.373C5.4873 14.373 5.33057 14.3472 5.10254 14.2563C4.91211 14.1807 4.70947 14.0449 4.52441 13.8691C4.34961 13.7036 4.1792 13.48 3.93066 12.9849L0.317383 12.9917L0.183105 12.8682C0.109375 12.8003 0.0356445 12.6948 0.019043 12.6348C0.00292969 12.5742 0.00292969 12.4644 0.019043 12.3906C0.0356445 12.3164 0.0991211 12.2012 0.271973 12.0122H3.95508L4.07715 11.7437C4.14404 11.5957 4.30371 11.3628 4.43115 11.2251C4.55859 11.0879 4.75098 10.9243 4.8584 10.8613C4.96582 10.7983 5.17432 10.7129 5.32227 10.6714C5.48975 10.6245 5.70996 10.604 5.9082 10.6167ZM5.05176 12.0366C4.9624 12.1821 4.93213 12.2998 4.93311 12.5005C4.93359 12.6943 4.96582 12.8232 5.04932 12.9644C5.11328 13.0718 5.25 13.208 5.35352 13.2676C5.47363 13.3369 5.62598 13.3765 5.77393 13.3774C5.90137 13.3784 6.06641 13.356 6.14014 13.3271C6.21387 13.2988 6.3374 13.2163 6.41455 13.144C6.4917 13.0718 6.58545 12.9414 6.62207 12.8545C6.65918 12.7671 6.68945 12.6079 6.68945 12.5005C6.68945 12.3931 6.66602 12.2446 6.6377 12.1709C6.60889 12.0967 6.52637 11.9731 6.45459 11.896C6.38232 11.8188 6.25195 11.7256 6.16455 11.6885C6.07715 11.6519 5.90137 11.6216 5.77393 11.6216C5.62158 11.6216 5.47852 11.6597 5.35693 11.7314C5.25488 11.792 5.11768 11.9292 5.05176 12.0366ZM18.5225 11.8916C18.4629 11.9712 18.3911 12.0967 18.3623 12.1709C18.334 12.2446 18.3105 12.3931 18.3105 12.5005C18.3105 12.6079 18.334 12.7559 18.3623 12.8301C18.3911 12.9038 18.4736 13.0273 18.5454 13.1045C18.6177 13.1816 18.748 13.2749 18.8354 13.312C18.9229 13.3491 19.0986 13.3789 19.2261 13.3779C19.3807 13.3773 19.5231 13.3384 19.6533 13.2612C19.7607 13.1978 19.8975 13.0605 19.957 12.957C20.0327 12.8252 20.0649 12.6885 20.0649 12.5005C20.0649 12.312 20.0327 12.1753 19.957 12.0435C19.8975 11.9399 19.7607 11.8027 19.6533 11.7393C19.5171 11.6582 19.3843 11.6235 19.2139 11.6245C19.0796 11.625 18.8936 11.6528 18.7998 11.686C18.7065 11.7197 18.5815 11.812 18.5225 11.8916ZM19.2017 15.041C19.2217 15.04 19.293 15.0615 19.3604 15.0884C19.4272 15.1152 19.771 15.4502 20.7656 16.5288L23.478 16.5776L23.686 16.7241C23.8008 16.8047 23.9453 16.9688 24.1245 17.3101L24.0967 22.1113L23.9502 22.3164C23.8696 22.4297 23.7104 22.5742 23.3887 22.7544H14.9902L14.8071 22.6382C14.7065 22.5742 14.5757 22.4697 14.5171 22.4063C14.458 22.3423 14.3755 22.208 14.334 22.1074C14.269 21.9507 14.2578 21.5938 14.2549 17.3589L14.3906 17.0933C14.5034 16.8726 14.5718 16.8042 15.0635 16.5498L17.6025 16.5557L18.2373 15.8633C18.5864 15.4819 18.938 15.1416 19.0186 15.1069C19.0991 15.0718 19.1816 15.0425 19.2017 15.041ZM18.5908 16.9565L18.042 17.5308L15.3076 17.5288C15.2505 18.2295 15.2339 19.1689 15.2344 20.0688V21.7046C21.3081 21.7534 23.0879 21.7588 23.1079 21.748C23.1279 21.7373 23.1445 20.8003 23.1445 19.666L23.145 17.603C22.0659 17.5464 21.4453 17.5298 21.0693 17.5303C20.562 17.5303 20.3604 17.5127 20.2881 17.4619C20.2344 17.4243 19.9707 17.1494 19.7021 16.8516C19.4336 16.5532 19.1973 16.3091 19.1772 16.3091C19.1572 16.3091 19.1401 16.3252 19.1401 16.3457C19.1396 16.3657 18.8926 16.6406 18.5908 16.9565ZM3.06885 4.15088L5.79443 4.14893C8.46094 4.14746 8.52344 4.14941 8.65479 4.24658C8.7443 4.31299 8.79867 4.40723 8.81787 4.5293C8.83545 4.63965 8.8208 4.76807 8.78125 4.85303C8.74512 4.93066 8.65527 5.02393 8.58154 5.06055C8.47314 5.11426 7.93164 5.12744 3.07617 5.12744L2.92969 4.98096C2.8125 4.86377 2.78418 4.79395 2.78711 4.63525C2.78955 4.48535 2.8252 4.40088 2.92969 4.29346L3.06885 4.15088ZM4.06445 5.56348L7.62598 5.59131L7.74365 5.72559C7.82617 5.81934 7.86133 5.91846 7.86133 6.05518C7.86133 6.20508 7.82813 6.28467 7.57617 6.54346L5.80225 6.54443C4.09082 6.54541 4.02441 6.54199 3.91846 6.44678C3.8584 6.39258 3.78564 6.2876 3.75781 6.21387C3.72949 6.14014 3.71875 6.01904 3.7334 5.94531C3.74805 5.87158 3.82861 5.75537 3.91211 5.68701L4.06445 5.56348ZM17.4243 18.4575L19.1982 18.4565C20.9097 18.4556 20.9756 18.459 21.0815 18.5542C21.1421 18.6084 21.2148 18.7134 21.2427 18.7871C21.271 18.8613 21.2817 18.9819 21.2671 19.0557C21.2524 19.1299 21.1743 19.2451 20.9473 19.4341L17.3745 19.4097L17.2568 19.2754C17.1714 19.1782 17.1401 19.0864 17.1426 18.9424C17.1455 18.7925 17.1807 18.7075 17.2852 18.6006L17.4243 18.4575ZM21.9243 19.8735L22.0708 20.02C22.1846 20.1338 22.2173 20.21 22.2173 20.3618C22.2173 20.5117 22.1841 20.5908 21.9316 20.8501L19.2061 20.8516C16.5396 20.8535 16.4771 20.8511 16.3457 20.7539C16.2562 20.6878 16.2018 20.5938 16.1826 20.4717C16.165 20.3608 16.1797 20.2324 16.2192 20.1475C16.2549 20.0703 16.3394 19.9775 16.4067 19.9419C16.5039 19.8906 17.0811 19.877 21.9243 19.8735Z" fill="white"/>
</svg>
