<svg width="220" height="200" viewBox="0 0 220 200" fill="none" xmlns="http://www.w3.org/2000/svg">
<path d="M109.957 14.2344C57.8703 14.2344 15.6149 52.65 15.6149 100C15.6149 147.348 57.8282 185.766 109.957 185.766C162.087 185.766 204.299 147.35 204.299 100C204.299 52.6484 162.042 14.2344 109.957 14.2344ZM110.001 29.5449C128.487 29.5449 143.469 43.1633 143.469 59.9711C143.469 76.777 128.489 90.4352 110.001 90.4352C91.5142 90.4352 76.4902 76.8168 76.4902 59.9711C76.4885 43.1254 91.4687 29.5449 110.001 29.5449ZM167.149 151.916H52.848V142.233C52.848 117.002 75.3614 96.5375 103.113 96.5375H116.881C144.635 96.5375 167.146 117.004 167.146 142.233L167.149 151.916Z" fill="#CBC8C9"/>
<path d="M167.149 149.949H128.485H66.9153H52.8448L55.01 151.918C55.01 148.494 54.9664 145.108 55.01 141.684C55.0973 135.11 56.7858 128.576 60.0322 122.713C66.4827 111.063 78.477 102.443 92.5037 99.5298C97.6565 98.4678 102.851 98.4678 108.09 98.4678C112.809 98.4678 117.571 98.2709 122.291 98.7439C136.578 100.122 149.741 107.678 157.448 118.699C161.779 124.84 164.375 131.924 164.896 139.246C165.199 143.457 165.025 147.708 165.025 151.959C165.025 154.478 169.355 154.478 169.355 151.959C169.355 148.181 169.485 144.401 169.312 140.623C169.052 133.538 167.017 126.611 163.467 120.314C156.583 108.191 143.854 99.0982 129.263 95.9104C123.592 94.6896 117.92 94.5721 112.161 94.5721C106.966 94.5721 101.726 94.3753 96.5751 94.9658C81.4217 96.7374 67.7392 104.49 59.2962 116.063C54.5765 122.557 51.7195 130.115 50.8971 137.867C50.4204 142.512 50.6806 147.235 50.6806 151.919C50.6806 152.981 51.6759 153.888 52.8458 153.888H91.5091H153.079H167.15C169.963 153.885 169.963 149.949 167.148 149.949L167.149 149.949Z" fill="#CBC8C9"/>
<path d="M110 31.5117C122.989 31.6292 135.026 39.0297 139.442 50.2465C143.902 61.5824 140.048 74.3739 129.83 82.0489C119.742 89.6446 105.02 90.5113 93.8502 84.4109C82.7234 78.35 76.661 66.189 79.2155 54.5769C82.1175 41.2347 95.1053 31.6308 110 31.5117C112.772 31.472 112.772 27.5367 110 27.575C95.0636 27.6925 81.6411 36.1945 76.49 48.948C71.3806 61.6219 75.8404 76.4215 87.3142 84.9617C98.8737 93.5418 115.501 94.8019 128.316 87.7953C141.175 80.7503 147.843 66.8953 144.941 53.5132C141.649 38.5183 126.669 27.7335 110 27.5765C107.186 27.5765 107.186 31.5117 110 31.5117L110 31.5117Z" fill="#CBC8C9"/>
<mask id="path-4-inside-1_35_424" fill="white">
<path d="M109.957 12.2657C89.9968 12.3053 70.2982 17.9328 54.0203 28.5207C38.2611 38.7946 26.0941 53.1989 19.3398 69.7707C12.3256 87.0118 11.5887 106.299 17.131 124.013C22.4131 140.978 33.4978 156.368 48.4346 167.583C63.7185 179.076 82.6385 186.043 102.425 187.459C122.471 188.915 142.821 184.547 160.007 175.062C176.503 165.931 189.924 152.311 197.848 136.292C206.203 119.486 208.542 100.553 204.559 82.4485C200.705 65.0899 190.877 48.9524 176.805 36.7102C162.647 24.3504 144.333 16.0469 124.937 13.3305C119.959 12.6607 114.981 12.3066 109.959 12.267C107.188 12.267 107.188 16.2037 109.959 16.2037C129.139 16.2433 147.844 21.6755 163.472 31.7509C178.626 41.5517 190.403 55.6033 196.681 71.5048C203.174 87.9568 203.868 106.102 198.629 122.907C193.52 139.281 182.87 153.922 168.452 164.747C138.621 187.104 95.152 189.819 62.1606 171.595C46.4014 162.896 33.7574 149.947 26.0952 134.715C18.042 118.734 15.7913 100.393 19.6447 83.1912C27.2648 49.3013 58.0042 22.6169 95.5877 17.1443C100.349 16.4744 105.157 16.1601 109.962 16.1601C112.73 16.2013 112.73 12.2645 109.959 12.2645L109.957 12.2657Z"/>
</mask>
<path d="M109.957 12.2657C89.9968 12.3053 70.2982 17.9328 54.0203 28.5207C38.2611 38.7946 26.0941 53.1989 19.3398 69.7707C12.3256 87.0118 11.5887 106.299 17.131 124.013C22.4131 140.978 33.4978 156.368 48.4346 167.583C63.7185 179.076 82.6385 186.043 102.425 187.459C122.471 188.915 142.821 184.547 160.007 175.062C176.503 165.931 189.924 152.311 197.848 136.292C206.203 119.486 208.542 100.553 204.559 82.4485C200.705 65.0899 190.877 48.9524 176.805 36.7102C162.647 24.3504 144.333 16.0469 124.937 13.3305C119.959 12.6607 114.981 12.3066 109.959 12.267C107.188 12.267 107.188 16.2037 109.959 16.2037C129.139 16.2433 147.844 21.6755 163.472 31.7509C178.626 41.5517 190.403 55.6033 196.681 71.5048C203.174 87.9568 203.868 106.102 198.629 122.907C193.52 139.281 182.87 153.922 168.452 164.747C138.621 187.104 95.152 189.819 62.1606 171.595C46.4014 162.896 33.7574 149.947 26.0952 134.715C18.042 118.734 15.7913 100.393 19.6447 83.1912C27.2648 49.3013 58.0042 22.6169 95.5877 17.1443C100.349 16.4744 105.157 16.1601 109.962 16.1601C112.73 16.2013 112.73 12.2645 109.959 12.2645L109.957 12.2657Z" fill="#CBC8C9"/>
<path d="M109.957 12.2657L109.981 24.2656L113.735 24.2582L116.815 22.1127L109.957 12.2657ZM54.0203 28.5207L47.4773 18.4615L47.4669 18.4683L54.0203 28.5207ZM19.3398 69.7707L8.22735 65.2416L8.22448 65.2487L19.3398 69.7707ZM17.131 124.013L28.5884 120.446L28.586 120.438L28.5835 120.43L17.131 124.013ZM48.4346 167.583L55.6466 157.992L55.6399 157.987L48.4346 167.583ZM102.425 187.459L103.294 175.491L103.281 175.49L102.425 187.459ZM160.007 175.062L165.805 185.568L165.812 185.564L165.819 185.561L160.007 175.062ZM197.848 136.292L187.103 130.95L187.097 130.961L187.092 130.972L197.848 136.292ZM204.559 82.4485L216.278 79.87L216.276 79.8588L216.273 79.8477L204.559 82.4485ZM176.805 36.7102L168.913 45.7501L168.921 45.7569L168.929 45.7637L176.805 36.7102ZM124.937 13.3305L126.602 1.44649L126.57 1.442L126.538 1.43768L124.937 13.3305ZM109.959 12.267L110.054 0.267327L110.006 0.266953H109.959V12.267ZM109.959 16.2037L109.984 4.20369L109.971 4.20367H109.959V16.2037ZM163.472 31.7509L169.989 21.6748L169.982 21.67L169.974 21.6651L163.472 31.7509ZM196.681 71.5048L207.843 67.099L207.842 67.0986L196.681 71.5048ZM198.629 122.907L210.085 126.482L210.086 126.479L198.629 122.907ZM168.452 164.747L175.649 174.35L175.657 174.343L168.452 164.747ZM62.1606 171.595L67.9628 161.091L67.9598 161.089L62.1606 171.595ZM26.0952 134.715L36.8154 129.322L36.8114 129.314L26.0952 134.715ZM19.6447 83.1912L7.93702 80.5587L7.93493 80.568L19.6447 83.1912ZM95.5877 17.1443L93.9161 5.26129L93.8873 5.26534L93.8586 5.26952L95.5877 17.1443ZM109.962 16.1601L110.141 4.16144L110.051 4.16011H109.962V16.1601ZM109.959 12.2645V0.264526H106.192L103.1 2.41749L109.959 12.2645ZM109.957 12.2657L109.933 0.265682C87.7885 0.309696 65.802 6.54222 47.4773 18.4615L54.0203 28.5207L60.5634 38.58C74.7944 29.3235 92.205 24.301 109.981 24.2656L109.957 12.2657ZM54.0203 28.5207L47.4669 18.4683C29.7988 29.9865 15.9637 46.26 8.22736 65.2416L19.3398 69.7707L30.4523 74.2999C36.2244 60.1377 46.7235 47.6026 60.5738 38.5732L54.0203 28.5207ZM19.3398 69.7707L8.22448 65.2487C0.15052 85.0945 -0.687966 107.248 5.67842 127.596L17.131 124.013L28.5835 120.43C23.8653 105.35 24.5007 88.929 30.4552 74.2928L19.3398 69.7707ZM17.131 124.013L5.67349 127.58C11.7493 147.094 24.4002 164.543 41.2292 177.179L48.4346 167.583L55.6399 157.987C42.5953 148.192 33.0769 134.861 28.5884 120.446L17.131 124.013ZM48.4346 167.583L41.2225 177.174C58.4225 190.108 79.5682 197.854 101.568 199.429L102.425 187.459L103.281 175.49C85.7088 174.232 69.0146 168.045 55.6466 157.992L48.4346 167.583ZM102.425 187.459L101.556 199.428C123.852 201.047 146.527 196.207 165.805 185.568L160.007 175.062L154.209 164.555C139.114 172.886 121.089 176.783 103.294 175.491L102.425 187.459ZM160.007 175.062L165.819 185.561C184.269 175.348 199.508 160 208.604 141.613L197.848 136.292L187.092 130.972C180.34 144.621 168.738 156.514 154.196 164.563L160.007 175.062ZM197.848 136.292L208.593 141.634C218.158 122.396 220.854 100.67 216.278 79.87L204.559 82.4485L192.839 85.0269C196.229 100.436 194.249 116.576 187.103 130.95L197.848 136.292ZM204.559 82.4485L216.273 79.8477C211.83 59.8343 200.572 41.481 184.681 27.6567L176.805 36.7102L168.929 45.7637C181.182 56.4237 189.579 70.3454 192.844 85.0493L204.559 82.4485ZM176.805 36.7102L184.697 27.6703C168.729 13.7304 148.233 4.47594 126.602 1.44649L124.937 13.3305L123.273 25.2145C140.434 27.6179 156.565 34.9705 168.913 45.7501L176.805 36.7102ZM124.937 13.3305L126.538 1.43768C121.062 0.700875 115.58 0.311005 110.054 0.267327L109.959 12.267L109.864 24.2666C114.381 24.3023 118.857 24.6205 123.337 25.2233L124.937 13.3305ZM109.959 12.267V0.266953C106.231 0.266953 102.449 1.68764 99.6504 4.66982C97.012 7.48085 95.8806 11.0038 95.8806 14.2353C95.8806 17.4668 97.012 20.9898 99.6504 23.8008C102.449 26.783 106.231 28.2037 109.959 28.2037V16.2037V4.20367C112.301 4.20367 115.044 5.13226 117.15 7.37631C119.096 9.44921 119.881 11.988 119.881 14.2353C119.881 16.4826 119.096 19.0214 117.15 21.0943C115.044 23.3384 112.301 24.267 109.959 24.267V12.267ZM109.959 16.2037L109.934 28.2036C126.894 28.2387 143.337 33.0478 156.97 41.8367L163.472 31.7509L169.974 21.6651C152.35 10.3032 131.384 4.24796 109.984 4.20369L109.959 16.2037ZM163.472 31.7509L156.955 41.8271C170.151 50.3615 180.221 62.4919 185.519 75.9111L196.681 71.5048L207.842 67.0986C200.585 48.7147 187.101 32.742 169.989 21.6748L163.472 31.7509ZM196.681 71.5048L185.519 75.9107C191.014 89.8324 191.591 105.164 187.173 119.336L198.629 122.907L210.086 126.479C216.145 107.041 215.335 86.0812 207.843 67.099L196.681 71.5048ZM198.629 122.907L187.174 119.333C182.87 133.126 173.806 145.722 161.247 155.151L168.452 164.747L175.657 174.343C191.934 162.122 204.17 145.437 210.085 126.482L198.629 122.907ZM168.452 164.747L161.256 155.144C135.286 174.608 96.9129 177.083 67.9628 161.091L62.1606 171.595L56.3584 182.099C93.3911 202.555 141.956 199.6 175.649 174.35L168.452 164.747ZM62.1606 171.595L67.9598 161.089C54.203 153.496 43.3323 142.278 36.8154 129.322L26.0952 134.715L15.375 140.107C24.1825 157.617 38.5997 172.296 56.3614 182.101L62.1606 171.595ZM26.0952 134.715L36.8114 129.314C30.0021 115.802 28.1105 100.296 31.3545 85.8143L19.6447 83.1912L7.93493 80.568C3.47209 100.49 6.08184 121.666 15.379 140.115L26.0952 134.715ZM19.6447 83.1912L31.3524 85.8236C37.7506 57.3683 64.0326 33.8657 97.3168 29.0191L95.5877 17.1443L93.8586 5.26952C51.9758 11.3682 16.779 41.2344 7.93703 80.5587L19.6447 83.1912ZM95.5877 17.1443L97.2593 29.0273C101.432 28.4404 105.679 28.1601 109.962 28.1601V16.1601V4.16011C104.635 4.16011 99.2674 4.50852 93.9161 5.26129L95.5877 17.1443ZM109.962 16.1601L109.783 28.1588C113.514 28.2143 117.352 26.8449 120.209 23.8439C122.9 21.0185 124.039 17.4625 124.037 14.2226C124.036 10.9813 122.895 7.46151 120.26 4.65855C117.463 1.68468 113.687 0.264526 109.959 0.264526V12.2645V24.2645C107.616 24.2645 104.879 23.3365 102.775 21.0995C100.833 19.0334 100.038 16.4952 100.037 14.2329C100.036 11.9721 100.83 9.39259 102.828 7.2937C104.994 5.01927 107.794 4.12651 110.141 4.16144L109.962 16.1601ZM109.959 12.2645L103.1 2.41749L103.099 2.41862L109.957 12.2657L116.815 22.1127L116.817 22.1116L109.959 12.2645Z" fill="#BDBABA" mask="url(#path-4-inside-1_35_424)"/>
</svg>
