<svg width="30" height="30" viewBox="0 0 30 30" fill="none" xmlns="http://www.w3.org/2000/svg">
<path d="M14.9942 2.13513C7.8915 2.13513 2.12939 7.89748 2.12939 15C2.12939 22.1021 7.88576 27.8648 14.9942 27.8648C22.1028 27.8648 27.8591 22.1025 27.8591 15C27.8591 7.89724 22.0967 2.13513 14.9942 2.13513ZM15.0002 4.43171C17.5211 4.43171 19.5641 6.47447 19.5641 8.99564C19.5641 11.5165 17.5214 13.5652 15.0002 13.5652C12.4793 13.5652 10.4306 11.5225 10.4306 8.99564C10.4304 6.46878 12.4731 4.43171 15.0002 4.43171ZM22.7932 22.7874H7.20663V21.3349C7.20663 17.5503 10.2767 14.4806 14.0609 14.4806H15.9385C19.723 14.4806 22.7927 17.5506 22.7927 21.3349L22.7932 22.7874Z" fill="#7E7D7D"/>
<path d="M22.793 22.4924H17.5208H9.12485H7.20614L7.5014 22.7876C7.5014 22.274 7.49545 21.7661 7.5014 21.2525C7.5133 20.2665 7.74356 19.2864 8.18625 18.4069C9.06586 16.6594 10.7014 15.3664 12.6142 14.9295C13.3168 14.7702 14.0252 14.7702 14.7395 14.7702C15.3831 14.7702 16.0325 14.7406 16.6761 14.8116C18.6244 15.0183 20.4193 16.1517 21.4703 17.8049C22.0608 18.7259 22.4149 19.7886 22.4858 20.8868C22.5272 21.5185 22.5034 22.1562 22.5034 22.7939C22.5034 23.1718 23.0939 23.1718 23.0939 22.7939C23.0939 22.2272 23.1116 21.6602 23.088 21.0935C23.0525 20.0308 22.7751 18.9917 22.291 18.0471C21.3523 16.2286 19.6165 14.8647 17.6268 14.3865C16.8534 14.2034 16.0801 14.1858 15.2947 14.1858C14.5863 14.1858 13.8718 14.1563 13.1694 14.2449C11.103 14.5106 9.2372 15.6736 8.08589 17.4094C7.44229 18.3835 7.0527 19.5172 6.94056 20.6801C6.87555 21.3768 6.91103 22.0852 6.91103 22.7879C6.91103 22.9472 7.04676 23.0832 7.20629 23.0832H12.4786H20.8745H22.7932C23.1768 23.0827 23.1768 22.4924 22.7929 22.4924L22.793 22.4924Z" fill="#7E7D7D"/>
<path d="M15.0001 4.72675C16.7714 4.74438 18.4127 5.85445 19.0149 7.53697C19.6231 9.23736 19.0976 11.1561 17.7041 12.3073C16.3285 13.4467 14.3211 13.5767 12.7979 12.6616C11.2806 11.7525 10.4539 9.92835 10.8022 8.18653C11.198 6.18521 12.969 4.74462 15.0002 4.72675C15.378 4.7208 15.378 4.1305 15.0002 4.13624C12.9633 4.15387 11.133 5.42917 10.4306 7.3422C9.73382 9.24327 10.342 11.4632 11.9066 12.7442C13.4829 14.0313 15.7502 14.2203 17.4977 13.1693C19.2512 12.1125 20.1605 10.0343 19.7648 8.02698C19.3159 5.77774 17.2732 4.16002 15.0002 4.13647C14.6163 4.13647 14.6163 4.72675 15.0002 4.72675L15.0001 4.72675Z" fill="#7E7D7D"/>
<path d="M14.9944 1.83983C12.2725 1.84578 9.58634 2.68991 7.36663 4.27809C5.21765 5.81917 3.5585 7.97981 2.63747 10.4656C1.68099 13.0517 1.5805 15.9448 2.33626 18.6019C3.05656 21.1466 4.5681 23.4551 6.60493 25.1375C8.68911 26.8614 11.2691 27.9065 13.9672 28.1189C16.7008 28.3372 19.4758 27.682 21.8194 26.2592C24.0689 24.8896 25.899 22.8466 26.9795 20.4438C28.1189 17.9229 28.4377 15.083 27.8946 12.3673C27.369 9.76346 26.0289 7.34284 24.11 5.50651C22.1794 3.65255 19.6821 2.40702 17.0371 1.99956C16.3583 1.89908 15.6794 1.84598 14.9946 1.84002C14.6167 1.84002 14.6167 2.43053 14.9946 2.43053C17.6101 2.43648 20.1607 3.25131 22.2919 4.76262C24.3583 6.23274 25.9643 8.34047 26.8203 10.7257C27.7058 13.1935 27.8004 15.9154 27.086 18.4361C26.3893 20.8922 24.9371 23.0883 22.971 24.712C18.9031 28.0656 12.9755 28.4728 8.47667 25.7392C6.32768 24.4344 4.6035 22.4921 3.55866 20.2072C2.46049 17.8101 2.15358 15.0589 2.67905 12.4787C3.71815 7.39518 7.90989 3.39252 13.0349 2.57163C13.6842 2.47115 14.3398 2.424 14.995 2.424C15.3725 2.43018 15.3725 1.83966 14.9946 1.83966L14.9944 1.83983Z" fill="#7E7D7D"/>
</svg>
