<svg width="20" height="20" viewBox="0 0 20 20" fill="none" xmlns="http://www.w3.org/2000/svg">
<path d="M9.9961 1.42334C5.26096 1.42334 1.41956 5.26491 1.41956 9.99992C1.41956 14.7347 5.25714 18.5765 9.9961 18.5765C14.7352 18.5765 18.5727 14.7349 18.5727 9.99992C18.5727 5.26475 14.7311 1.42334 9.9961 1.42334ZM10.0001 2.95439C11.6807 2.95439 13.0427 4.31623 13.0427 5.99701C13.0427 7.67759 11.6809 9.04339 10.0001 9.04339C8.3195 9.04339 6.9537 7.68159 6.9537 5.99701C6.95356 4.31244 8.31536 2.95439 10.0001 2.95439ZM15.1954 15.1915H4.80438V14.2232C4.80438 11.7001 6.8511 9.65365 9.3739 9.65365H10.6256C13.1486 9.65365 15.1951 11.7003 15.1951 14.2232L15.1954 15.1915Z" fill="#7E7D7D"/>
<path d="M15.1954 14.995H11.6806H6.08327H4.80413L5.00097 15.1918C5.00097 14.8494 4.99701 14.5108 5.00097 14.1684C5.00891 13.511 5.16241 12.8576 5.45754 12.2713C6.04395 11.1063 7.13431 10.2443 8.40951 9.95304C8.87791 9.84684 9.35017 9.84684 9.82637 9.84684C10.2554 9.84684 10.6884 9.82711 11.1174 9.87444C12.4163 10.0122 13.6129 10.7678 14.3136 11.87C14.7072 12.484 14.9433 13.1924 14.9906 13.9246C15.0182 14.3457 15.0023 14.7708 15.0023 15.196C15.0023 15.4479 15.396 15.4479 15.396 15.196C15.396 14.8182 15.4078 14.4402 15.392 14.0624C15.3684 13.3539 15.1834 12.6612 14.8607 12.0314C14.2349 10.8191 13.0777 9.90984 11.7512 9.59104C11.2356 9.46898 10.7201 9.45724 10.1965 9.45724C9.72424 9.45724 9.24791 9.43758 8.77964 9.49664C7.40204 9.67378 6.15817 10.4491 5.39063 11.6063C4.96157 12.2557 4.70184 13.0115 4.62708 13.7868C4.58374 14.2512 4.60739 14.7235 4.60739 15.192C4.60739 15.2982 4.69788 15.3888 4.80423 15.3888H8.31911H13.9164H15.1955C15.4512 15.3885 15.4513 14.995 15.1954 14.995Z" fill="#7E7D7D"/>
<path d="M10.0001 3.15127C11.181 3.16302 12.2752 3.90307 12.6766 5.02475C13.0821 6.15834 12.7318 7.4375 11.8028 8.20497C10.8857 8.96457 9.54743 9.05124 8.53196 8.44117C7.52043 7.8351 6.96929 6.619 7.20149 5.45779C7.46536 4.12358 8.64596 3.16318 10.0001 3.15127C10.252 3.1473 10.252 2.75377 10.0002 2.7576C8.64223 2.76935 7.42203 3.61955 6.95376 4.8949C6.48924 6.16228 6.89469 7.64224 7.93776 8.49624C8.98863 9.3543 10.5002 9.4803 11.6652 8.77964C12.8342 8.0751 13.4404 6.68964 13.1766 5.35142C12.8773 3.85193 11.5155 2.7733 10.0002 2.7576C9.74423 2.7576 9.74416 3.15127 10.0001 3.15127Z" fill="#7E7D7D"/>
<path d="M9.99631 1.22643C8.18171 1.2304 6.39093 1.79315 4.91113 2.85194C3.47847 3.87932 2.37237 5.31975 1.75835 6.97695C1.1207 8.70101 1.05371 10.6297 1.55755 12.4011C2.03775 14.0976 3.04544 15.6366 4.40333 16.7582C5.79278 17.9075 7.51277 18.6042 9.31151 18.7458C11.1339 18.8913 12.9839 18.4545 14.5463 17.506C16.046 16.5929 17.266 15.2309 17.9864 13.6291C18.746 11.9485 18.9585 10.0552 18.5964 8.24475C18.246 6.50885 17.3526 4.8951 16.0734 3.67088C14.7863 2.43491 13.1214 1.60456 11.3581 1.33292C10.9056 1.26593 10.4528 1.23041 9.99631 1.22643C9.74437 1.22643 9.74451 1.62023 9.99644 1.62023C11.7401 1.6242 13.4405 2.16742 14.8613 3.17496C16.2389 4.15504 17.3096 5.56019 17.8802 7.15035C18.4706 8.79555 18.5336 10.6101 18.0574 12.2906C17.5929 13.928 16.6248 15.3921 15.314 16.4745C12.6021 18.7103 8.65037 18.9817 5.65115 17.1593C4.21849 16.2895 3.06904 14.9946 2.37248 13.4713C1.64037 11.8733 1.43576 10.0391 1.78607 8.31901C2.47881 4.93 5.2733 2.26156 8.68997 1.7143C9.12284 1.64731 9.55991 1.61588 9.99671 1.61588C10.2484 1.62 10.2482 1.22643 9.99631 1.22643Z" fill="#7E7D7D"/>
</svg>
